<svg width="146" height="37" viewBox="0 0 146 37" fill="none" xmlns="http://www.w3.org/2000/svg">
<path d="M77.2891 1.64578C77.3089 1.61213 77.3319 1.61213 77.3594 1.64578L77.3181 1.67944L77.2891 1.64578Z" fill="#6E80A3"/>
<path d="M42.1458 13.4002C42.5879 12.0633 43.0071 10.7997 43.417 9.5469C43.4675 9.39393 43.57 9.35874 43.7031 9.33427C45.9165 8.92125 48.1392 8.56942 50.4001 8.68108C51.9956 8.75604 53.5299 9.08187 54.9035 9.9385C56.7667 11.098 57.6188 12.8449 57.7396 14.9865C57.81 16.2179 57.6096 17.434 57.4337 18.6394C57.0681 21.0961 56.6918 23.5498 56.3384 26.0065C56.3288 26.1095 56.2916 26.208 56.2307 26.2917C56.1699 26.3754 56.0877 26.4412 55.9927 26.4822C54.5517 27.2731 52.9884 27.706 51.3822 27.9691C49.3944 28.3135 47.367 28.365 45.3643 28.1221C43.6954 27.9125 42.1397 27.3939 40.9282 26.1671C40.4024 25.6288 39.9943 24.987 39.7297 24.2826C39.465 23.5781 39.3497 22.8264 39.391 22.075C39.4323 21.3236 39.6293 20.5891 39.9695 19.9179C40.3097 19.2466 40.7856 18.6535 41.3672 18.1759C42.6093 17.1541 44.0778 16.6462 45.6244 16.3174C47.9663 15.8217 50.3297 15.889 52.6947 16.0695C52.9899 16.091 53.0541 16.0007 53.0679 15.7376C53.1735 13.8928 52.0659 12.5681 50.1217 12.2116C48.7725 11.9638 47.4478 12.178 46.1231 12.3952C44.7714 12.6176 43.4409 12.9538 42.1458 13.4002ZM50.4185 18.9653C49.5766 18.9598 48.7356 19.0217 47.9036 19.1504C47.0042 19.3033 46.1307 19.5404 45.4056 20.137C44.5857 20.8116 44.367 21.7172 44.5291 22.7146C44.6821 23.6247 45.3184 24.1234 46.1429 24.4171C46.5209 24.5501 46.914 24.6349 47.3132 24.6695C48.7878 24.8118 50.2196 24.5548 51.6422 24.203C51.7387 24.1902 51.8272 24.1426 51.8909 24.069C51.9546 23.9954 51.9891 23.901 51.9879 23.8037C52.1822 22.3581 52.3749 20.9111 52.5891 19.4685C52.6258 19.2192 52.5432 19.1718 52.3352 19.132C51.7015 19.0274 51.0607 18.9716 50.4185 18.9653Z" fill="#6E80A3"/>
<path d="M110.436 23.4749C110.191 24.2183 109.977 24.8838 109.75 25.5492C109.57 26.0953 109.377 26.6368 109.206 27.1875C109.189 27.2718 109.148 27.3493 109.088 27.4103C109.028 27.4713 108.95 27.513 108.866 27.5301C106.526 28.1543 104.155 28.4923 101.738 28.1879C98.9844 27.8407 96.7082 26.6582 95.3131 24.1327C94.4549 22.5693 94.1826 20.8668 94.2989 19.1122C94.5207 15.7744 95.9112 13.0072 98.4964 10.864C100.067 9.56074 101.9 8.89073 103.916 8.69187C105.307 8.55572 106.689 8.58173 108.046 8.95957C110.809 9.72442 112.651 11.8736 113.004 14.7189C113.208 16.3541 113.004 17.9603 112.739 19.568C112.707 19.7684 112.606 19.7746 112.453 19.7746C111.711 19.7746 110.968 19.7746 110.226 19.7746C106.657 19.7746 103.088 19.7746 99.5182 19.7746C99.2307 19.7746 99.1465 19.8449 99.1419 20.1402C99.1022 22.5448 100.43 24.1327 102.793 24.538C104.54 24.844 106.24 24.5794 107.936 24.2092C108.785 24.0195 109.62 23.7742 110.436 23.4749ZM104.195 16.6524H107.621C108.667 16.6524 108.667 16.6524 108.703 15.6061C108.774 13.4875 107.479 12.1062 105.372 11.9884C102.853 11.8461 100.477 13.671 99.8655 16.3786C99.815 16.6035 99.8655 16.6586 100.095 16.657C101.458 16.6463 102.818 16.6524 104.195 16.6524Z" fill="#6E80A3"/>
<path d="M119.229 28.2492C116.983 28.2343 114.753 27.8625 112.624 27.1478C112.411 27.0744 112.354 27.0132 112.431 26.7822C112.781 25.7226 113.116 24.658 113.436 23.5882C113.515 23.3251 113.609 23.3465 113.82 23.4475C115.865 24.4479 118.175 24.7736 120.417 24.3775C120.943 24.2974 121.443 24.0929 121.874 23.7809C122.073 23.6427 122.239 23.4615 122.359 23.2508C122.479 23.04 122.551 22.8049 122.568 22.5629C122.585 22.3209 122.548 22.0781 122.459 21.8524C122.37 21.6266 122.232 21.4237 122.054 21.2585C121.665 20.8985 121.229 20.5938 120.757 20.3529C119.587 19.6982 118.397 19.0848 117.285 18.326C114.297 16.2808 114.661 12.0237 117.603 10.1559C118.906 9.32832 120.333 8.91377 121.849 8.75621C124.376 8.49463 126.819 8.92753 129.227 9.65261C129.447 9.71839 129.504 9.77805 129.42 10.0121C129.057 11.0171 128.707 12.0282 128.378 13.0455C128.291 13.3132 128.187 13.2933 127.98 13.1985C126.474 12.4878 124.825 12.132 123.16 12.1583C122.353 12.1782 121.565 12.3112 120.881 12.7885C120.59 12.9739 120.369 13.2495 120.25 13.5731C120.131 13.8967 120.122 14.2504 120.223 14.5798C120.355 14.9492 120.604 15.2655 120.931 15.4808C121.64 16.0131 122.45 16.3726 123.226 16.7979C124.175 17.2933 125.081 17.8674 125.934 18.5142C128.455 20.515 128.199 24.327 125.781 26.2636C124.22 27.5104 122.394 28.009 120.451 28.1865C119.963 28.2293 119.478 28.237 119.229 28.2492Z" fill="#6E80A3"/>
<path d="M135.734 28.2491C133.518 28.2277 131.318 27.8597 129.216 27.1584C128.973 27.0774 128.91 27.0055 129 26.7485C129.346 25.7113 129.673 24.6681 129.991 23.6218C130.068 23.3678 130.144 23.3311 130.392 23.4504C132.429 24.4416 134.725 24.768 136.958 24.3836C137.436 24.3085 137.894 24.1378 138.305 23.8818C139.32 23.2348 139.443 22.0462 138.587 21.214C138.228 20.8912 137.828 20.6161 137.398 20.3956C136.174 19.7011 134.903 19.0801 133.751 18.254C131.094 16.3343 131.425 12.8603 133.049 11.1165C134.145 9.94317 135.527 9.31293 137.062 8.97487C139.098 8.51596 141.132 8.6261 143.165 9.0024C144.022 9.15537 144.86 9.38789 145.698 9.61429C145.977 9.6923 146.078 9.7749 145.96 10.0931C145.607 11.0522 145.285 12.022 144.973 12.9995C144.886 13.2672 144.799 13.3055 144.536 13.1907C143.05 12.493 141.426 12.138 139.785 12.1521C139.02 12.1658 138.281 12.279 137.614 12.6798C136.982 13.0576 136.662 13.6068 136.757 14.3625C136.817 14.8428 137.106 15.1778 137.47 15.4532C138.235 16.0329 139.115 16.4153 139.947 16.8743C140.895 17.3989 141.831 17.945 142.659 18.6502C144.978 20.6388 144.716 24.3254 142.39 26.2223C141.14 27.2426 139.69 27.7718 138.125 28.0457C137.334 28.1741 136.535 28.2421 135.734 28.2491Z" fill="#6E80A3"/>
<path d="M75.1299 23.7455C75.0519 24.2044 74.8546 24.6159 74.7093 25.0488C74.4324 25.8733 74.1371 26.6902 73.8633 27.5162C73.8432 27.5988 73.7974 27.6729 73.7326 27.7279C73.6677 27.7829 73.5871 27.8159 73.5023 27.8222C71.6667 28.1281 69.8111 28.3224 67.9464 28.1817C65.1639 27.9721 62.7776 26.9579 61.1377 24.5869C59.9813 22.9164 59.5729 21.0181 59.6753 19.0188C59.8467 15.684 61.2601 12.955 63.8652 10.8654C65.3582 9.66921 67.1143 9.08181 68.9851 8.83706C71.3009 8.50883 73.6591 8.64981 75.9192 9.25161C76.3506 9.36939 76.7667 9.5346 77.1904 9.67228C77.3434 9.72123 77.3832 9.787 77.3266 9.95374C76.9656 11.0092 76.6076 12.0678 76.2696 13.1309C76.1946 13.365 76.089 13.3176 75.9376 13.2579C74.8575 12.815 73.7137 12.547 72.5493 12.464C70.0299 12.3217 67.8394 13.0147 66.2668 15.1119C64.7937 17.0776 64.5658 20.3419 66.1429 22.3153C67.1235 23.539 68.4176 24.1876 69.9534 24.3666C71.6101 24.5593 73.2117 24.2396 74.7934 23.7853C74.8943 23.7562 74.9968 23.7364 75.0993 23.7119L75.1299 23.7455Z" fill="#6E80A3"/>
<path d="M92.5696 23.7245C92.2178 24.7371 91.814 25.7391 91.5248 26.7732C91.3153 27.5273 90.9619 27.8853 90.1389 27.9679C87.8444 28.1973 85.5498 28.4543 83.2553 27.847C79.6467 26.8879 77.2895 24.009 77.0936 20.2673C76.8795 16.2014 78.4367 12.9523 81.7118 10.5491C83.0886 9.54107 84.6947 9.0638 86.3713 8.84506C88.6865 8.51791 91.0439 8.65835 93.3039 9.25808C93.723 9.37281 94.1253 9.54413 94.543 9.66498C94.7617 9.72923 94.7678 9.82865 94.6959 10.0199C94.3456 11.0432 93.9984 12.0666 93.6726 13.0976C93.5945 13.3439 93.5012 13.3347 93.3008 13.2582C91.6977 12.6464 90.0579 12.3144 88.3278 12.4934C85.3892 12.8085 83.1528 14.7512 82.5883 17.6102C82.1814 19.6738 82.5547 21.5615 84.1991 23.0223C85.5101 24.1849 87.1055 24.5092 88.805 24.4098C90.004 24.3308 91.1887 24.1048 92.3325 23.7367C92.4014 23.7245 92.4626 23.6679 92.5696 23.7245Z" fill="#6E80A3"/>
<path d="M34.2942 19.5144L15.2387 0.458923V3.38372L31.3694 19.5144L31.3756 19.5205L17.4033 33.4928L17.3864 33.476L3.42331 19.5144L3.41108 19.5022L10.2657 12.6476H7.2904L0.429688 19.5083L0.435806 19.5144L17.3803 36.4589L17.3864 36.4528L34.3095 19.5297L34.2942 19.5144Z" fill="#6E80A3"/>
<path d="M15.2334 5.39691V8.32171L26.4324 19.5207L17.4102 28.5428L8.38034 19.5145L8.36811 19.5023L15.2227 12.6477H12.2474L5.38672 19.5084L5.39284 19.5145L15.9157 30.0374L17.3872 31.5089L18.8833 30.0144L29.3663 19.5298L15.2334 5.39691Z" fill="#6E80A3"/>
<path d="M24.4278 19.5145L18.8398 13.9204L17.3529 12.4335L15.8905 13.8959L10.2734 19.5084L15.8936 25.1285L17.3651 26.6001L18.8581 25.1056L24.4431 19.5298L24.4278 19.5145ZM17.3911 23.6447L13.2609 19.5145L13.2487 19.5023L17.3682 15.3828L21.4984 19.513L17.3911 23.6447Z" fill="#6E80A3"/>
</svg>
