<svg width="145" height="38" viewBox="0 0 145 38" fill="none" xmlns="http://www.w3.org/2000/svg">
<path d="M50.9453 34.0507L56.6209 19.761H59.8009L65.4966 34.0507H62.4173L61.25 30.911H55.0712L53.9039 34.0507H50.9453ZM56.0171 28.3751H60.304L58.1505 22.6793L56.0171 28.3751Z" fill="#233375"/>
<path d="M66.5408 37.9552V23.424H69.1371L69.2176 24.9737C69.5799 24.3968 70.063 23.9473 70.6667 23.6253C71.2705 23.2898 71.9347 23.1221 72.6592 23.1221C73.357 23.1221 74.001 23.263 74.5914 23.5447C75.1817 23.8265 75.6983 24.2223 76.1411 24.7322C76.5839 25.2287 76.926 25.8123 77.1675 26.4832C77.4225 27.1541 77.5499 27.8853 77.5499 28.677C77.5499 29.482 77.4225 30.2267 77.1675 30.911C76.9126 31.5953 76.557 32.1991 76.1008 32.7224C75.6447 33.2322 75.108 33.6347 74.4907 33.9299C73.8735 34.2117 73.2094 34.3526 72.4982 34.3526C71.8408 34.3526 71.2437 34.2251 70.707 33.9702C70.1703 33.7018 69.7208 33.3328 69.3585 32.8632V37.9552H66.5408ZM71.9951 31.8167C72.5049 31.8167 72.9611 31.6825 73.3637 31.4141C73.7662 31.1458 74.0815 30.7835 74.3096 30.3273C74.5511 29.8577 74.6719 29.3277 74.6719 28.7373C74.6719 28.147 74.5511 27.6237 74.3096 27.1675C74.0815 26.6979 73.7662 26.3289 73.3637 26.0605C72.9611 25.7922 72.5049 25.658 71.9951 25.658C71.4852 25.658 71.029 25.7922 70.6265 26.0605C70.224 26.3289 69.9019 26.6979 69.6604 27.1675C69.4323 27.6237 69.3183 28.147 69.3183 28.7373C69.3183 29.3277 69.4323 29.8577 69.6604 30.3273C69.9019 30.7835 70.224 31.1458 70.6265 31.4141C71.029 31.6825 71.4852 31.8167 71.9951 31.8167Z" fill="#233375"/>
<path d="M78.9924 37.9552V23.424H81.5887L81.6692 24.9737C82.0315 24.3968 82.5145 23.9473 83.1183 23.6253C83.7221 23.2898 84.3863 23.1221 85.1108 23.1221C85.8085 23.1221 86.4526 23.263 87.043 23.5447C87.6333 23.8265 88.1499 24.2223 88.5927 24.7322C89.0355 25.2287 89.3776 25.8123 89.6191 26.4832C89.8741 27.1541 90.0015 27.8853 90.0015 28.677C90.0015 29.482 89.8741 30.2267 89.6191 30.911C89.3642 31.5953 89.0086 32.1991 88.5524 32.7224C88.0962 33.2322 87.5595 33.6347 86.9423 33.9299C86.3251 34.2117 85.661 34.3526 84.9498 34.3526C84.2924 34.3526 83.6953 34.2251 83.1586 33.9702C82.6219 33.7018 82.1724 33.3328 81.8101 32.8632V37.9552H78.9924ZM84.4467 31.8167C84.9565 31.8167 85.4127 31.6825 85.8153 31.4141C86.2178 31.1458 86.5331 30.7835 86.7612 30.3273C87.0027 29.8577 87.1235 29.3277 87.1235 28.7373C87.1235 28.147 87.0027 27.6237 86.7612 27.1675C86.5331 26.6979 86.2178 26.3289 85.8153 26.0605C85.4127 25.7922 84.9565 25.658 84.4467 25.658C83.9368 25.658 83.4806 25.7922 83.0781 26.0605C82.6756 26.3289 82.3535 26.6979 82.112 27.1675C81.8839 27.6237 81.7699 28.147 81.7699 28.7373C81.7699 29.3277 81.8839 29.8577 82.112 30.3273C82.3535 30.7835 82.6756 31.1458 83.0781 31.4141C83.4806 31.6825 83.9368 31.8167 84.4467 31.8167Z" fill="#233375"/>
<path d="M99.8364 34.3526C98.9777 34.3526 98.186 34.205 97.4615 33.9098C96.7503 33.6012 96.1398 33.1718 95.63 32.6217C95.1335 32.0582 94.7914 31.3873 94.6035 30.6091L97.4011 30.0053C97.5755 30.5554 97.8774 30.9848 98.3068 31.2934C98.7496 31.602 99.2728 31.7563 99.8766 31.7563C100.306 31.7563 100.682 31.6825 101.004 31.5349C101.339 31.3739 101.594 31.1592 101.769 30.8909C101.956 30.6225 102.05 30.3139 102.05 29.965C102.05 29.5223 101.883 29.1667 101.547 28.8983C101.212 28.6166 100.668 28.3885 99.9169 28.2141L99.2728 28.0732C97.7969 27.7511 96.7101 27.2346 96.0124 26.5234C95.3147 25.7989 94.9658 24.92 94.9658 23.8869C94.9658 23.2429 95.0933 22.6525 95.3482 22.1158C95.6031 21.5791 95.952 21.1162 96.3948 20.7271C96.851 20.3245 97.381 20.0159 97.9848 19.8013C98.5886 19.5732 99.2393 19.4591 99.937 19.4591C100.729 19.4591 101.467 19.6067 102.151 19.9019C102.835 20.1971 103.412 20.6197 103.882 21.1698C104.351 21.72 104.667 22.3707 104.828 23.1221L102.07 23.7259C101.909 23.1892 101.628 22.7799 101.225 22.4982C100.836 22.203 100.38 22.0554 99.8565 22.0554C99.4942 22.0554 99.1655 22.1292 98.8703 22.2768C98.5886 22.411 98.3605 22.6055 98.186 22.8605C98.025 23.102 97.9445 23.377 97.9445 23.6856C97.9445 24.1552 98.1256 24.5175 98.4879 24.7725C98.8502 25.014 99.3869 25.2152 100.098 25.3762L100.742 25.5171C102.205 25.8391 103.285 26.349 103.982 27.0467C104.694 27.7444 105.049 28.6367 105.049 29.7235C105.049 30.4078 104.915 31.0317 104.647 31.5953C104.392 32.1588 104.029 32.6486 103.56 33.0645C103.09 33.4804 102.54 33.8025 101.909 34.0306C101.279 34.2452 100.588 34.3526 99.8364 34.3526Z" fill="#233375"/>
<path d="M110.873 34.3526C110.135 34.3526 109.498 34.2117 108.961 33.9299C108.438 33.6347 108.029 33.2121 107.734 32.662C107.452 32.1119 107.311 31.441 107.311 30.6493V25.6983H105.5V23.424H107.311V19.8013H110.129V23.424H113.027V25.6983H110.129V30.3072C110.129 30.8171 110.236 31.2129 110.451 31.4946C110.665 31.763 110.994 31.8972 111.437 31.8972C111.665 31.8972 111.906 31.8636 112.161 31.7965C112.43 31.7295 112.685 31.6422 112.926 31.5349L113.429 33.6482C113.08 33.8628 112.691 34.0306 112.262 34.1513C111.833 34.2855 111.37 34.3526 110.873 34.3526Z" fill="#233375"/>
<path d="M119.602 34.3526C118.811 34.3526 118.079 34.2117 117.409 33.9299C116.738 33.6482 116.154 33.2591 115.658 32.7626C115.161 32.2527 114.772 31.6557 114.49 30.9714C114.222 30.2871 114.088 29.5424 114.088 28.7373C114.088 27.9323 114.229 27.1943 114.51 26.5234C114.792 25.8391 115.181 25.2421 115.678 24.7322C116.188 24.2223 116.778 23.8265 117.449 23.5447C118.133 23.263 118.878 23.1221 119.683 23.1221C120.474 23.1221 121.206 23.263 121.877 23.5447C122.547 23.8265 123.131 24.2223 123.628 24.7322C124.124 25.2287 124.506 25.819 124.775 26.5033C125.057 27.1742 125.197 27.9122 125.197 28.7172C125.197 29.5223 125.057 30.2669 124.775 30.9512C124.493 31.6355 124.097 32.2326 123.587 32.7425C123.091 33.2523 122.5 33.6482 121.816 33.9299C121.145 34.2117 120.407 34.3526 119.602 34.3526ZM119.643 31.8167C120.152 31.8167 120.609 31.6825 121.011 31.4141C121.414 31.1458 121.729 30.7835 121.957 30.3273C122.199 29.8577 122.319 29.3277 122.319 28.7373C122.319 28.147 122.199 27.6237 121.957 27.1675C121.729 26.6979 121.414 26.3289 121.011 26.0605C120.609 25.7922 120.152 25.658 119.643 25.658C119.133 25.658 118.676 25.7922 118.274 26.0605C117.871 26.3289 117.549 26.6979 117.308 27.1675C117.08 27.6237 116.966 28.147 116.966 28.7373C116.966 29.3277 117.08 29.8577 117.308 30.3273C117.549 30.7835 117.871 31.1458 118.274 31.4141C118.676 31.6825 119.133 31.8167 119.643 31.8167Z" fill="#233375"/>
<path d="M126.647 34.0507V23.424H129.243L129.344 25.0341C129.612 24.4706 129.975 24.0412 130.431 23.746C130.887 23.4374 131.424 23.2831 132.041 23.2831C132.229 23.2831 132.417 23.3032 132.604 23.3435C132.792 23.3703 132.96 23.4106 133.108 23.4642L132.806 26.2417C132.658 26.188 132.504 26.1545 132.343 26.141C132.195 26.1142 132.041 26.1008 131.88 26.1008C131.102 26.1008 130.505 26.3423 130.089 26.8253C129.673 27.295 129.465 27.9658 129.465 28.838V34.0507H126.647Z" fill="#233375"/>
<path d="M139 34.3526C138.209 34.3526 137.477 34.2184 136.807 33.9501C136.149 33.6683 135.579 33.2792 135.096 32.7827C134.613 32.2729 134.237 31.6758 133.969 30.9915C133.7 30.2938 133.566 29.5357 133.566 28.7172C133.566 27.9256 133.7 27.1876 133.969 26.5033C134.237 25.819 134.606 25.2287 135.076 24.7322C135.559 24.2223 136.122 23.8265 136.766 23.5447C137.41 23.263 138.108 23.1221 138.859 23.1221C139.638 23.1221 140.342 23.2563 140.973 23.5246C141.617 23.793 142.167 24.1754 142.623 24.6718C143.079 25.1683 143.428 25.7586 143.67 26.4429C143.925 27.1272 144.052 27.892 144.052 28.7373V29.4418H136.424C136.545 30.2334 136.833 30.8573 137.29 31.3135C137.746 31.7563 138.323 31.9777 139.02 31.9777C139.503 31.9777 139.94 31.8636 140.329 31.6355C140.731 31.4074 141.06 31.0787 141.315 30.6493L143.831 31.4544C143.589 32.0582 143.227 32.5748 142.744 33.0041C142.261 33.4335 141.697 33.7689 141.053 34.0104C140.409 34.2385 139.725 34.3526 139 34.3526ZM138.859 25.2957C138.242 25.2957 137.719 25.497 137.29 25.8995C136.874 26.3021 136.599 26.8522 136.464 27.5499H141.154C141.046 26.8522 140.785 26.3021 140.369 25.8995C139.966 25.497 139.463 25.2957 138.859 25.2957Z" fill="#233375"/>
<path d="M51.4727 11.4086V3.66831H54.0346C54.6523 3.66831 55.212 3.75916 55.7134 3.94086C56.2222 4.12255 56.6546 4.3842 57.0107 4.72578C57.3741 5.0601 57.6503 5.46347 57.8393 5.93588C58.0355 6.40829 58.1336 6.93521 58.1336 7.51663C58.1336 8.10533 58.0355 8.63951 57.8393 9.11919C57.6503 9.5916 57.3741 9.9986 57.0107 10.3402C56.6546 10.6818 56.2258 10.9471 55.7243 11.136C55.2229 11.3177 54.6632 11.4086 54.0455 11.4086H51.4727ZM52.3884 10.5691H54.0128C54.4997 10.5691 54.9394 10.5001 55.3319 10.362C55.7243 10.2166 56.0587 10.0131 56.3348 9.75149C56.611 9.48258 56.8218 9.1628 56.9671 8.79214C57.1198 8.42148 57.1961 8.00358 57.1961 7.53844C57.1961 7.0733 57.1198 6.65539 56.9671 6.28474C56.8218 5.91408 56.6074 5.59792 56.3239 5.33628C56.0478 5.06737 55.7134 4.86387 55.321 4.72578C54.9358 4.58043 54.4997 4.50775 54.0128 4.50775H52.3884V10.5691Z" fill="#233375"/>
<path d="M61.7444 11.5721C61.3447 11.5721 60.974 11.4994 60.6324 11.3541C60.2981 11.2014 60.0038 10.9943 59.7494 10.7327C59.5023 10.4637 59.3097 10.1476 59.1716 9.7842C59.0335 9.42081 58.9645 9.02471 58.9645 8.59591C58.9645 8.16711 59.0335 7.77101 59.1716 7.40762C59.317 7.04422 59.5132 6.73171 59.7603 6.47007C60.0147 6.20116 60.3126 5.99402 60.6542 5.84866C60.9958 5.69604 61.3665 5.61973 61.7662 5.61973C62.1659 5.61973 62.533 5.69604 62.8673 5.84866C63.2089 5.99402 63.5032 6.20116 63.7503 6.47007C64.0047 6.73171 64.2009 7.04422 64.339 7.40762C64.4771 7.77101 64.5462 8.16711 64.5462 8.59591C64.5462 9.02471 64.4735 9.42081 64.3281 9.7842C64.19 10.1476 63.9938 10.4637 63.7394 10.7327C63.4923 10.9943 63.198 11.2014 62.8564 11.3541C62.5148 11.4994 62.1441 11.5721 61.7444 11.5721ZM61.7553 10.7763C62.0315 10.7763 62.2822 10.7217 62.5075 10.6127C62.7401 10.5037 62.94 10.3547 63.1071 10.1658C63.2816 9.96953 63.416 9.74059 63.5105 9.47895C63.605 9.21004 63.6522 8.91569 63.6522 8.59591C63.6522 8.27612 63.605 7.98541 63.5105 7.72377C63.416 7.45486 63.2816 7.22592 63.1071 7.03696C62.94 6.84072 62.7401 6.6881 62.5075 6.57908C62.2822 6.47007 62.0315 6.41556 61.7553 6.41556C61.4791 6.41556 61.2248 6.47007 60.9922 6.57908C60.7669 6.6881 60.567 6.84072 60.3926 7.03696C60.2254 7.22592 60.0946 7.45486 60.0001 7.72377C59.9056 7.98541 59.8584 8.27612 59.8584 8.59591C59.8584 8.91569 59.9056 9.21004 60.0001 9.47895C60.0946 9.74059 60.2254 9.96953 60.3926 10.1658C60.567 10.3547 60.7669 10.5037 60.9922 10.6127C61.2248 10.7217 61.4791 10.7763 61.7553 10.7763Z" fill="#233375"/>
<path d="M66.7689 11.4086L64.872 5.78325H65.7878L67.1941 10.3402L68.644 5.78325H69.429L70.868 10.3402L72.2743 5.78325H73.1683L71.2713 11.4086H70.4319L69.0256 6.90614L67.6084 11.4086H66.7689Z" fill="#233375"/>
<path d="M73.9082 11.4086V5.78325H74.6931L74.7367 6.6772C74.9039 6.35741 75.1437 6.10304 75.4563 5.91408C75.776 5.71784 76.1431 5.61973 76.5573 5.61973C76.9861 5.61973 77.3604 5.72148 77.6802 5.92498C78 6.12848 78.2435 6.41919 78.4106 6.79712C78.5851 7.16778 78.6723 7.60748 78.6723 8.11623V11.4086H77.8001V8.17074C77.8001 7.61112 77.6766 7.17868 77.4295 6.87343C77.1896 6.56818 76.8444 6.41556 76.3938 6.41556C76.0813 6.41556 75.8015 6.48823 75.5544 6.63359C75.3145 6.77168 75.1256 6.96791 74.9875 7.22229C74.8494 7.46939 74.7804 7.75284 74.7804 8.07262V11.4086H73.9082Z" fill="#233375"/>
<path d="M79.9395 11.4086V3.31946H80.8117V11.4086H79.9395Z" fill="#233375"/>
<path d="M84.6134 11.5721C84.2137 11.5721 83.843 11.4994 83.5014 11.3541C83.1671 11.2014 82.8727 10.9943 82.6184 10.7327C82.3713 10.4637 82.1787 10.1476 82.0406 9.7842C81.9025 9.42081 81.8334 9.02471 81.8334 8.59591C81.8334 8.16711 81.9025 7.77101 82.0406 7.40762C82.1859 7.04422 82.3822 6.73171 82.6293 6.47007C82.8836 6.20116 83.1816 5.99402 83.5232 5.84866C83.8648 5.69604 84.2355 5.61973 84.6352 5.61973C85.0349 5.61973 85.402 5.69604 85.7363 5.84866C86.0779 5.99402 86.3722 6.20116 86.6193 6.47007C86.8737 6.73171 87.0699 7.04422 87.208 7.40762C87.3461 7.77101 87.4151 8.16711 87.4151 8.59591C87.4151 9.02471 87.3425 9.42081 87.1971 9.7842C87.059 10.1476 86.8628 10.4637 86.6084 10.7327C86.3613 10.9943 86.067 11.2014 85.7254 11.3541C85.3838 11.4994 85.0131 11.5721 84.6134 11.5721ZM84.6243 10.7763C84.9005 10.7763 85.1512 10.7217 85.3765 10.6127C85.6091 10.5037 85.809 10.3547 85.9761 10.1658C86.1505 9.96953 86.285 9.74059 86.3795 9.47895C86.474 9.21004 86.5212 8.91569 86.5212 8.59591C86.5212 8.27612 86.474 7.98541 86.3795 7.72377C86.285 7.45486 86.1505 7.22592 85.9761 7.03696C85.809 6.84072 85.6091 6.6881 85.3765 6.57908C85.1512 6.47007 84.9005 6.41556 84.6243 6.41556C84.3481 6.41556 84.0937 6.47007 83.8612 6.57908C83.6359 6.6881 83.436 6.84072 83.2616 7.03696C83.0944 7.22592 82.9636 7.45486 82.8691 7.72377C82.7746 7.98541 82.7274 8.27612 82.7274 8.59591C82.7274 8.91569 82.7746 9.21004 82.8691 9.47895C82.9636 9.74059 83.0944 9.96953 83.2616 10.1658C83.436 10.3547 83.6359 10.5037 83.8612 10.6127C84.0937 10.7217 84.3481 10.7763 84.6243 10.7763Z" fill="#233375"/>
<path d="M90.1799 11.5721C89.7875 11.5721 89.4386 11.4994 89.1334 11.3541C88.8281 11.2014 88.5883 10.9943 88.4138 10.7327C88.2467 10.471 88.1631 10.1694 88.1631 9.82781C88.1631 9.45715 88.2576 9.13736 88.4466 8.86845C88.6428 8.59954 88.9153 8.39241 89.2642 8.24705C89.613 8.09443 90.02 8.01811 90.4852 8.01811C90.7468 8.01811 91.0121 8.04719 91.281 8.10533C91.5499 8.16347 91.7898 8.23978 92.0005 8.33427V7.92C92.0005 7.61475 91.9387 7.34947 91.8152 7.12417C91.6989 6.8916 91.5354 6.71354 91.3246 6.58998C91.1138 6.45916 90.8667 6.39375 90.5833 6.39375C90.2417 6.39375 89.9437 6.4737 89.6894 6.63359C89.4422 6.79348 89.2569 7.01879 89.1334 7.3095L88.3702 7.04786C88.472 6.75714 88.6282 6.5064 88.839 6.29564C89.057 6.08487 89.3151 5.92134 89.613 5.80506C89.9183 5.68877 90.2453 5.63063 90.5942 5.63063C91.0448 5.63063 91.4373 5.72875 91.7716 5.92498C92.1132 6.11394 92.3748 6.38285 92.5565 6.73171C92.7455 7.0733 92.84 7.47666 92.84 7.9418V11.4086H92.0768L92.0223 10.5364C91.8624 10.8489 91.619 11.0997 91.2919 11.2886C90.9721 11.4776 90.6015 11.5721 90.1799 11.5721ZM89.0461 9.7951C89.0461 10.0059 89.1007 10.1912 89.2097 10.3511C89.3187 10.5037 89.4713 10.6236 89.6675 10.7108C89.8638 10.7981 90.0891 10.8417 90.3435 10.8417C90.656 10.8417 90.9358 10.7726 91.1829 10.6345C91.4373 10.4892 91.6371 10.2966 91.7825 10.0567C91.9278 9.80964 92.0005 9.52982 92.0005 9.21731V9.01017C91.7607 8.91569 91.5172 8.84301 91.2701 8.79214C91.0303 8.734 90.8013 8.70493 90.5833 8.70493C90.1036 8.70493 89.7257 8.80304 89.4495 8.99927C89.1806 9.1955 89.0461 9.46078 89.0461 9.7951Z" fill="#233375"/>
<path d="M96.4598 11.5721C96.0891 11.5721 95.7439 11.4994 95.4241 11.3541C95.1043 11.2014 94.8245 10.9907 94.5847 10.7217C94.3448 10.4528 94.1559 10.1403 94.0178 9.7842C93.887 9.42081 93.8215 9.02834 93.8215 8.60681C93.8215 8.18528 93.887 7.79281 94.0178 7.42942C94.1559 7.06603 94.3448 6.74988 94.5847 6.48097C94.8318 6.21206 95.1189 6.00129 95.4459 5.84866C95.773 5.69604 96.1254 5.61973 96.5034 5.61973C96.9322 5.61973 97.3174 5.71784 97.659 5.91408C98.0078 6.11031 98.284 6.38648 98.4875 6.74261V3.31946H99.3596V11.4086H98.5747L98.5311 10.3402C98.3276 10.7254 98.0442 11.027 97.6808 11.245C97.3246 11.4631 96.9176 11.5721 96.4598 11.5721ZM96.6124 10.7763C96.8886 10.7763 97.1393 10.7217 97.3646 10.6127C97.5972 10.5037 97.7971 10.3547 97.9642 10.1658C98.1386 9.96953 98.2731 9.74059 98.3676 9.47895C98.4621 9.21004 98.5093 8.91569 98.5093 8.59591C98.5093 8.27612 98.4621 7.98541 98.3676 7.72377C98.2731 7.45486 98.1386 7.22592 97.9642 7.03696C97.7971 6.84072 97.5972 6.6881 97.3646 6.57908C97.1393 6.47007 96.8886 6.41556 96.6124 6.41556C96.3362 6.41556 96.0818 6.47007 95.8493 6.57908C95.624 6.6881 95.4241 6.84072 95.2497 7.03696C95.0825 7.22592 94.9517 7.45486 94.8572 7.72377C94.7627 7.98541 94.7155 8.27612 94.7155 8.59591C94.7155 8.91569 94.7627 9.21004 94.8572 9.47895C94.9517 9.74059 95.0825 9.96953 95.2497 10.1658C95.4241 10.3547 95.624 10.5037 95.8493 10.6127C96.0818 10.7217 96.3362 10.7763 96.6124 10.7763Z" fill="#233375"/>
<path d="M105.332 11.5721C104.932 11.5721 104.561 11.4994 104.22 11.3541C103.886 11.2014 103.591 10.9943 103.337 10.7327C103.09 10.4637 102.897 10.1476 102.759 9.7842C102.621 9.42081 102.552 9.02471 102.552 8.59591C102.552 8.16711 102.621 7.77101 102.759 7.40762C102.904 7.04422 103.101 6.73171 103.348 6.47007C103.602 6.20116 103.9 5.99402 104.242 5.84866C104.583 5.69604 104.954 5.61973 105.354 5.61973C105.753 5.61973 106.12 5.69604 106.455 5.84866C106.796 5.99402 107.091 6.20116 107.338 6.47007C107.592 6.73171 107.788 7.04422 107.926 7.40762C108.065 7.77101 108.134 8.16711 108.134 8.59591C108.134 9.02471 108.061 9.42081 107.916 9.7842C107.777 10.1476 107.581 10.4637 107.327 10.7327C107.08 10.9943 106.785 11.2014 106.444 11.3541C106.102 11.4994 105.732 11.5721 105.332 11.5721ZM105.343 10.7763C105.619 10.7763 105.87 10.7217 106.095 10.6127C106.328 10.5037 106.527 10.3547 106.695 10.1658C106.869 9.96953 107.003 9.74059 107.098 9.47895C107.192 9.21004 107.24 8.91569 107.24 8.59591C107.24 8.27612 107.192 7.98541 107.098 7.72377C107.003 7.45486 106.869 7.22592 106.695 7.03696C106.527 6.84072 106.328 6.6881 106.095 6.57908C105.87 6.47007 105.619 6.41556 105.343 6.41556C105.067 6.41556 104.812 6.47007 104.58 6.57908C104.354 6.6881 104.154 6.84072 103.98 7.03696C103.813 7.22592 103.682 7.45486 103.588 7.72377C103.493 7.98541 103.446 8.27612 103.446 8.59591C103.446 8.91569 103.493 9.21004 103.588 9.47895C103.682 9.74059 103.813 9.96953 103.98 10.1658C104.154 10.3547 104.354 10.5037 104.58 10.6127C104.812 10.7217 105.067 10.7763 105.343 10.7763Z" fill="#233375"/>
<path d="M109.154 11.4086V5.78325H109.939L109.983 6.6772C110.15 6.35741 110.39 6.10304 110.702 5.91408C111.022 5.71784 111.389 5.61973 111.803 5.61973C112.232 5.61973 112.606 5.72148 112.926 5.92498C113.246 6.12848 113.489 6.41919 113.657 6.79712C113.831 7.16778 113.918 7.60748 113.918 8.11623V11.4086H113.046V8.17074C113.046 7.61112 112.922 7.17868 112.675 6.87343C112.436 6.56818 112.09 6.41556 111.64 6.41556C111.327 6.41556 111.047 6.48823 110.8 6.63359C110.56 6.77168 110.371 6.96791 110.233 7.22229C110.095 7.46939 110.026 7.75284 110.026 8.07262V11.4086H109.154Z" fill="#233375"/>
<path d="M119.456 11.5721C119.115 11.5721 118.82 11.503 118.573 11.365C118.326 11.2269 118.133 11.0234 117.995 10.7545C117.865 10.4855 117.799 10.1585 117.799 9.7733V6.52457H116.763V5.78325H117.799V3.89725H118.671V5.78325H120.437V6.52457H118.671V9.72969C118.671 10.064 118.74 10.3257 118.878 10.5146C119.024 10.6963 119.242 10.7872 119.532 10.7872C119.685 10.7872 119.838 10.7654 119.99 10.7217C120.15 10.6709 120.292 10.6055 120.416 10.5255L120.677 11.2014C120.525 11.3104 120.346 11.3977 120.143 11.4631C119.939 11.5357 119.711 11.5721 119.456 11.5721Z" fill="#233375"/>
<path d="M121.584 11.4086V3.31946H122.456V6.60089C122.624 6.3029 122.863 6.0667 123.176 5.89227C123.488 5.71058 123.841 5.61973 124.233 5.61973C124.662 5.61973 125.036 5.72148 125.356 5.92498C125.676 6.12848 125.919 6.41919 126.087 6.79712C126.261 7.16778 126.348 7.60748 126.348 8.11623V11.4086H125.476V8.17074C125.476 7.61112 125.353 7.17868 125.105 6.87343C124.866 6.56818 124.52 6.41556 124.07 6.41556C123.757 6.41556 123.477 6.48823 123.23 6.63359C122.991 6.77168 122.802 6.96791 122.663 7.22229C122.525 7.46939 122.456 7.75284 122.456 8.07262V11.4086H121.584Z" fill="#233375"/>
<path d="M130.167 11.5721C129.752 11.5721 129.371 11.4994 129.022 11.3541C128.68 11.2087 128.382 11.0052 128.128 10.7436C127.874 10.4746 127.677 10.1621 127.539 9.806C127.401 9.44261 127.332 9.04288 127.332 8.60681C127.332 8.17801 127.397 7.78554 127.528 7.42942C127.666 7.06603 127.855 6.74988 128.095 6.48097C128.342 6.21206 128.629 6.00492 128.956 5.85957C129.284 5.70694 129.64 5.63063 130.025 5.63063C130.395 5.63063 130.737 5.69967 131.05 5.83776C131.369 5.97585 131.646 6.16845 131.878 6.41556C132.111 6.66266 132.289 6.95701 132.412 7.2986C132.543 7.64019 132.609 8.01085 132.609 8.41058V8.77034H128.237C128.266 9.17733 128.36 9.53346 128.52 9.83871C128.688 10.144 128.909 10.3802 129.185 10.5473C129.462 10.7145 129.781 10.7981 130.145 10.7981C130.501 10.7981 130.81 10.7254 131.071 10.58C131.34 10.4274 131.569 10.2057 131.758 9.91502L132.5 10.253C132.354 10.5292 132.165 10.7654 131.933 10.9616C131.7 11.1578 131.431 11.3068 131.126 11.4086C130.828 11.5176 130.508 11.5721 130.167 11.5721ZM130.025 6.37195C129.727 6.37195 129.454 6.44463 129.207 6.58998C128.967 6.73534 128.764 6.93884 128.597 7.20048C128.437 7.45486 128.331 7.75284 128.281 8.09443H131.693C131.664 7.75284 131.573 7.45486 131.42 7.20048C131.268 6.93884 131.071 6.73534 130.832 6.58998C130.592 6.44463 130.323 6.37195 130.025 6.37195Z" fill="#233375"/>
<path d="M27.2869 19.0573C27.3063 17.6917 27.7059 16.3527 28.4485 15.1649C29.1911 13.9771 30.2526 12.9792 31.5342 12.2639C30.7201 11.2083 29.646 10.3396 28.3973 9.72676C27.1486 9.11393 25.7596 8.77386 24.3408 8.73357C21.3143 8.44518 18.3802 10.3776 16.8379 10.3776C15.2658 10.3776 12.8912 8.7622 10.3341 8.80996C8.68019 8.85847 7.06828 9.29508 5.65547 10.0773C4.24265 10.8594 3.07712 11.9605 2.27244 13.2732C-1.21328 18.7518 1.38675 26.8034 4.72578 31.2318C6.39637 33.4003 8.3488 35.8226 10.9035 35.7367C13.4035 35.6426 14.3372 34.2895 17.3548 34.2895C20.3445 34.2895 21.2204 35.7367 23.827 35.6821C26.5096 35.6425 28.1997 33.5039 29.8117 31.3149C31.012 29.7698 31.9356 28.0621 32.5484 26.2551C30.9899 25.6567 29.6599 24.6551 28.7243 23.3751C27.7886 22.0951 27.2887 20.5935 27.2869 19.0573Z" fill="#233375"/>
<path d="M22.3631 5.82072C23.8258 4.22676 24.5463 2.17799 24.3719 0.109497C22.1373 0.322559 20.0731 1.29208 18.5907 2.82489C17.8659 3.57371 17.3108 4.44486 16.9571 5.38855C16.6034 6.33224 16.458 7.32996 16.5294 8.32467C17.6471 8.33512 18.7528 8.1152 19.7633 7.68147C20.7738 7.24775 21.6627 6.61152 22.3631 5.82072Z" fill="#233375"/>
</svg>
