<svg width="33" height="25" viewBox="0 0 33 25" fill="none" xmlns="http://www.w3.org/2000/svg">
<path fill-rule="evenodd" clip-rule="evenodd" d="M0.25 0H33.5824V25H0.25V0Z" fill="white"/>
<path d="M35.2493 0H-2.25V24.9998H35.2493V0Z" fill="#F0F0F0"/>
<path d="M18.8433 0H14.1559V10.156H-2.25V14.8434H14.1559V24.9994H18.8433V14.8434H35.2493V10.156H18.8433V0Z" fill="#D80027"/>
<path d="M26.5898 16.8477L35.248 21.6578V16.8477H26.5898Z" fill="#0052B4"/>
<path d="M20.5742 16.8474L35.2479 24.9994V22.6942L24.7237 16.8474H20.5742Z" fill="#0052B4"/>
<path d="M31.3393 24.9992L20.5742 19.0181V24.9992H31.3393Z" fill="#0052B4"/>
<path d="M20.5742 16.8474L35.2479 24.9994V22.6942L24.7237 16.8474H20.5742Z" fill="#F0F0F0"/>
<path d="M20.5742 16.8474L35.2479 24.9994V22.6942L24.7237 16.8474H20.5742Z" fill="#D80027"/>
<path d="M4.36664 16.8474L-2.25 20.5234V16.8474H4.36664Z" fill="#0052B4"/>
<path d="M12.4238 17.8838V24.9992H-0.382812L12.4238 17.8838Z" fill="#0052B4"/>
<path d="M8.27418 16.8474L-2.25 22.6942V24.9994L12.4236 16.8474H8.27418Z" fill="#D80027"/>
<path d="M6.40816 8.15196L-2.25 3.3418V8.15196H6.40816Z" fill="#0052B4"/>
<path d="M12.4236 8.15199L-2.25 0V2.30518L8.27418 8.15199H12.4236Z" fill="#0052B4"/>
<path d="M1.66016 0L12.4252 5.98113V0H1.66016Z" fill="#0052B4"/>
<path d="M12.4236 8.15199L-2.25 0V2.30518L8.27418 8.15199H12.4236Z" fill="#F0F0F0"/>
<path d="M12.4236 8.15199L-2.25 0V2.30518L8.27418 8.15199H12.4236Z" fill="#D80027"/>
<path d="M28.6328 8.15178L35.2495 4.47583V8.15178H28.6328Z" fill="#0052B4"/>
<path d="M20.5742 7.11541V0H33.3809L20.5742 7.11541Z" fill="#0052B4"/>
<path d="M24.7237 8.15199L35.2479 2.30518V0L20.5742 8.15199H24.7237Z" fill="#D80027"/>
</svg>
