<svg width="145" height="35" viewBox="0 0 145 35" fill="none" xmlns="http://www.w3.org/2000/svg">
<path d="M41.9951 31.1825C41.1498 31.1825 40.3515 31.0617 39.6001 30.8202C38.8621 30.5787 38.1846 30.2366 37.5673 29.7938C36.9636 29.3376 36.4403 28.8009 35.9975 28.1837C35.5681 27.5665 35.2327 26.8822 34.9912 26.1308C34.7497 25.366 34.6289 24.5475 34.6289 23.6754C34.6289 22.8032 34.7497 21.9848 34.9912 21.22C35.2327 20.4552 35.5748 19.7575 36.0176 19.1268C36.4604 18.4962 36.9904 17.9595 37.6076 17.5167C38.2248 17.0605 38.9024 16.7117 39.6404 16.4702C40.3917 16.2152 41.1901 16.0878 42.0354 16.0878C42.988 16.0878 43.8736 16.2421 44.6921 16.5507C45.5105 16.8593 46.2284 17.3021 46.8456 17.879C47.4762 18.456 47.9659 19.1537 48.3148 19.9721L45.4166 20.8577C45.0543 20.2137 44.5847 19.7172 44.0078 19.3684C43.4442 19.0195 42.7868 18.8451 42.0354 18.8451C41.4182 18.8451 40.8479 18.9658 40.3247 19.2073C39.8014 19.4354 39.3452 19.7709 38.9561 20.2137C38.567 20.643 38.2651 21.1462 38.0504 21.7231C37.8357 22.3001 37.7284 22.9307 37.7284 23.615C37.7284 24.3127 37.8357 24.9568 38.0504 25.5471C38.2651 26.1375 38.567 26.6474 38.9561 27.0767C39.3586 27.5061 39.8282 27.8415 40.3649 28.0831C40.9016 28.3112 41.492 28.4252 42.136 28.4252C42.8203 28.4252 43.4308 28.2977 43.9675 28.0428C44.5042 27.7879 44.9403 27.4323 45.2757 26.9761C45.6112 26.5199 45.8191 25.9832 45.8996 25.366H42.3373V22.8905H48.979V24.3999C48.979 25.3928 48.8045 26.3052 48.4557 27.1371C48.1202 27.969 47.6439 28.6868 47.0267 29.2906C46.4095 29.8944 45.6715 30.364 44.8128 30.6995C43.9541 31.0215 43.0149 31.1825 41.9951 31.1825Z" fill="#233375"/>
<path d="M55.7174 31.0819C54.9257 31.0819 54.1945 30.941 53.5236 30.6592C52.8527 30.3775 52.269 29.9883 51.7726 29.4919C51.2761 28.982 50.887 28.3849 50.6053 27.7007C50.3369 27.0164 50.2027 26.2717 50.2027 25.4666C50.2027 24.6616 50.3436 23.9236 50.6254 23.2527C50.9072 22.5684 51.2963 21.9714 51.7927 21.4615C52.3026 20.9516 52.893 20.5558 53.5638 20.274C54.2481 19.9923 54.9928 19.8514 55.7979 19.8514C56.5895 19.8514 57.3208 19.9923 57.9916 20.274C58.6625 20.5558 59.2462 20.9516 59.7426 21.4615C60.2391 21.9579 60.6215 22.5483 60.8898 23.2326C61.1716 23.9035 61.3125 24.6415 61.3125 25.4465C61.3125 26.2516 61.1716 26.9962 60.8898 27.6805C60.608 28.3648 60.2122 28.9619 59.7024 29.4718C59.2059 29.9816 58.6155 30.3775 57.9312 30.6592C57.2604 30.941 56.5224 31.0819 55.7174 31.0819ZM55.7576 28.546C56.2675 28.546 56.7237 28.4118 57.1262 28.1434C57.5287 27.8751 57.844 27.5128 58.0721 27.0566C58.3137 26.587 58.4344 26.057 58.4344 25.4666C58.4344 24.8763 58.3137 24.353 58.0721 23.8968C57.844 23.4272 57.5287 23.0582 57.1262 22.7898C56.7237 22.5215 56.2675 22.3873 55.7576 22.3873C55.2477 22.3873 54.7915 22.5215 54.389 22.7898C53.9865 23.0582 53.6645 23.4272 53.423 23.8968C53.1949 24.353 53.0808 24.8763 53.0808 25.4666C53.0808 26.057 53.1949 26.587 53.423 27.0566C53.6645 27.5128 53.9865 27.8751 54.389 28.1434C54.7915 28.4118 55.2477 28.546 55.7576 28.546Z" fill="#233375"/>
<path d="M67.9724 31.0819C67.1808 31.0819 66.4495 30.941 65.7786 30.6592C65.1077 30.3775 64.5241 29.9883 64.0276 29.4919C63.5312 28.982 63.1421 28.3849 62.8603 27.7007C62.592 27.0164 62.4578 26.2717 62.4578 25.4666C62.4578 24.6616 62.5987 23.9236 62.8804 23.2527C63.1622 22.5684 63.5513 21.9714 64.0478 21.4615C64.5576 20.9516 65.148 20.5558 65.8189 20.274C66.5032 19.9923 67.2478 19.8514 68.0529 19.8514C68.8445 19.8514 69.5758 19.9923 70.2467 20.274C70.9175 20.5558 71.5012 20.9516 71.9977 21.4615C72.4941 21.9579 72.8765 22.5483 73.1449 23.2326C73.4266 23.9035 73.5675 24.6415 73.5675 25.4465C73.5675 26.2516 73.4266 26.9962 73.1449 27.6805C72.8631 28.3648 72.4673 28.9619 71.9574 29.4718C71.461 29.9816 70.8706 30.3775 70.1863 30.6592C69.5154 30.941 68.7774 31.0819 67.9724 31.0819ZM68.0126 28.546C68.5225 28.546 68.9787 28.4118 69.3812 28.1434C69.7838 27.8751 70.0991 27.5128 70.3272 27.0566C70.5687 26.587 70.6894 26.057 70.6894 25.4666C70.6894 24.8763 70.5687 24.353 70.3272 23.8968C70.0991 23.4272 69.7838 23.0582 69.3812 22.7898C68.9787 22.5215 68.5225 22.3873 68.0126 22.3873C67.5028 22.3873 67.0466 22.5215 66.6441 22.7898C66.2415 23.0582 65.9195 23.4272 65.678 23.8968C65.4499 24.353 65.3358 24.8763 65.3358 25.4666C65.3358 26.057 65.4499 26.587 65.678 27.0566C65.9195 27.5128 66.2415 27.8751 66.6441 28.1434C67.0466 28.4118 67.5028 28.546 68.0126 28.546Z" fill="#233375"/>
<path d="M79.4828 30.4781C78.8119 30.4781 78.1813 30.3439 77.5909 30.0756C77.0139 29.8072 76.5108 29.4382 76.0814 28.9686C75.6521 28.4856 75.3166 27.9288 75.0751 27.2981C74.8336 26.6541 74.7128 25.9631 74.7128 25.2251C74.7128 24.4603 74.8336 23.7559 75.0751 23.1119C75.33 22.4544 75.6789 21.8841 76.1217 21.4011C76.5779 20.9181 77.1011 20.5424 77.6915 20.274C78.2953 19.9923 78.9461 19.8514 79.6438 19.8514C80.3281 19.8514 80.9453 19.9923 81.4954 20.274C82.0455 20.5424 82.5017 20.9382 82.864 21.4615L82.9244 20.1533H85.5207V29.512C85.5207 30.3305 85.3865 31.0752 85.1181 31.746C84.8632 32.4169 84.4942 32.9939 84.0112 33.4769C83.5281 33.9599 82.9512 34.3289 82.2803 34.5839C81.6229 34.8522 80.8916 34.9864 80.0865 34.9864C79.2949 34.9864 78.5838 34.8589 77.9532 34.604C77.3225 34.3625 76.7724 34.0203 76.3028 33.5775C75.8332 33.1348 75.4642 32.6182 75.1959 32.0278L77.8928 31.3636C78.1343 31.7528 78.4429 32.0546 78.8186 32.2693C79.2077 32.4974 79.6438 32.6115 80.1268 32.6115C80.6501 32.6115 81.0996 32.4907 81.4753 32.2492C81.8644 32.0211 82.1663 31.6924 82.3809 31.263C82.5956 30.8471 82.703 30.3573 82.703 29.7938V28.9284C82.3407 29.4114 81.8778 29.7938 81.3143 30.0756C80.7641 30.3439 80.1536 30.4781 79.4828 30.4781ZM80.1671 27.9824C80.6635 27.9824 81.0996 27.8617 81.4753 27.6201C81.8644 27.3652 82.173 27.0298 82.4011 26.6138C82.6292 26.1845 82.7432 25.7014 82.7432 25.1647C82.7432 24.628 82.6292 24.1517 82.4011 23.7358C82.173 23.3064 81.8644 22.971 81.4753 22.7295C81.0996 22.4745 80.6635 22.3471 80.1671 22.3471C79.6706 22.3471 79.2278 22.4745 78.8387 22.7295C78.463 22.971 78.1611 23.3064 77.933 23.7358C77.7049 24.1517 77.5909 24.628 77.5909 25.1647C77.5909 25.7014 77.7049 26.1845 77.933 26.6138C78.1611 27.0298 78.463 27.3652 78.8387 27.6201C79.2278 27.8617 79.6706 27.9824 80.1671 27.9824Z" fill="#233375"/>
<path d="M87.3704 30.78V15.7657H90.1881V30.78H87.3704Z" fill="#233375"/>
<path d="M97.0703 31.0819C96.2787 31.0819 95.5474 30.9477 94.8766 30.6793C94.2191 30.3976 93.6489 30.0085 93.1658 29.512C92.6828 29.0022 92.3071 28.4051 92.0387 27.7208C91.7704 27.0231 91.6362 26.265 91.6362 25.4465C91.6362 24.6549 91.7704 23.9169 92.0387 23.2326C92.3071 22.5483 92.6761 21.9579 93.1457 21.4615C93.6287 20.9516 94.1923 20.5558 94.8363 20.274C95.4803 19.9923 96.1781 19.8514 96.9294 19.8514C97.7077 19.8514 98.4121 19.9856 99.0427 20.2539C99.6867 20.5223 100.237 20.9047 100.693 21.4011C101.149 21.8976 101.498 22.4879 101.74 23.1722C101.995 23.8565 102.122 24.6213 102.122 25.4666V26.1711H94.4942C94.6149 26.9627 94.9034 27.5866 95.3596 28.0428C95.8158 28.4856 96.3927 28.707 97.0905 28.707C97.5735 28.707 98.0096 28.5929 98.3987 28.3648C98.8012 28.1367 99.1299 27.808 99.3848 27.3786L101.901 28.1837C101.659 28.7875 101.297 29.3041 100.814 29.7334C100.331 30.1628 99.7673 30.4982 99.1232 30.7397C98.4792 30.9678 97.7949 31.0819 97.0703 31.0819ZM96.9294 22.025C96.3122 22.025 95.7889 22.2263 95.3596 22.6288C94.9436 23.0313 94.6686 23.5815 94.5344 24.2792H99.2238C99.1165 23.5815 98.8549 23.0313 98.4389 22.6288C98.0364 22.2263 97.5332 22.025 96.9294 22.025Z" fill="#233375"/>
<path d="M107.453 30.78V16.4903H112.042C113.209 16.4903 114.209 16.6848 115.041 17.074C115.886 17.4496 116.53 17.9998 116.973 18.7243C117.429 19.4354 117.657 20.3009 117.657 21.3206C117.657 22.0452 117.523 22.7026 117.255 23.293C116.986 23.8699 116.604 24.3731 116.107 24.8025C115.611 25.2184 115.014 25.5404 114.316 25.7685C113.632 25.9966 112.867 26.1107 112.022 26.1107C111.525 26.1107 110.989 26.0637 110.412 25.9698V30.78H107.453ZM110.412 19.0262V23.454C110.948 23.5345 111.445 23.5748 111.901 23.5748C112.76 23.5748 113.424 23.3802 113.893 22.9911C114.376 22.602 114.618 22.0384 114.618 21.3005C114.618 20.5759 114.39 20.0191 113.934 19.63C113.477 19.2275 112.827 19.0262 111.981 19.0262H110.412Z" fill="#233375"/>
<path d="M118.918 30.78V15.7657H121.735V30.78H118.918Z" fill="#233375"/>
<path d="M126.867 31.0819C126.316 31.0819 125.813 31.0014 125.357 30.8404C124.901 30.6793 124.498 30.4513 124.149 30.1561C123.814 29.8475 123.552 29.4919 123.365 29.0894C123.177 28.6868 123.083 28.2441 123.083 27.761C123.083 27.0902 123.264 26.4998 123.626 25.9899C123.988 25.48 124.498 25.0842 125.156 24.8025C125.813 24.5073 126.578 24.3597 127.45 24.3597C127.893 24.3597 128.309 24.3999 128.698 24.4804C129.101 24.5609 129.49 24.675 129.865 24.8226V24.1987C129.865 23.5949 129.691 23.1051 129.342 22.7295C129.007 22.3538 128.544 22.1659 127.953 22.1659C127.511 22.1659 127.108 22.28 126.746 22.5081C126.384 22.7227 126.129 23.0313 125.981 23.4339L123.465 22.9307C123.613 22.3135 123.901 21.7768 124.331 21.3206C124.773 20.851 125.31 20.4887 125.941 20.2338C126.571 19.9789 127.256 19.8514 127.994 19.8514C128.678 19.8514 129.302 19.9587 129.865 20.1734C130.429 20.3881 130.912 20.6967 131.314 21.0992C131.73 21.5017 132.046 21.9781 132.26 22.5282C132.489 23.0649 132.603 23.6687 132.603 24.3396V30.78H130.087L130.006 29.5321C129.724 29.9883 129.315 30.364 128.779 30.6592C128.242 30.941 127.605 31.0819 126.867 31.0819ZM125.86 27.6201C125.86 27.9958 126.015 28.3044 126.323 28.546C126.632 28.7875 127.041 28.9082 127.551 28.9082C127.994 28.9082 128.389 28.8143 128.738 28.6265C129.087 28.4386 129.362 28.1837 129.563 27.8617C129.765 27.5262 129.865 27.1572 129.865 26.7547V26.6541C129.57 26.5333 129.255 26.4394 128.919 26.3723C128.584 26.2918 128.249 26.2516 127.913 26.2516C127.282 26.2516 126.779 26.379 126.404 26.634C126.041 26.8755 125.86 27.2042 125.86 27.6201Z" fill="#233375"/>
<path d="M135.863 34.8857C135.501 34.8857 135.158 34.8455 134.836 34.765C134.514 34.6979 134.212 34.5839 133.931 34.4228L134.474 32.2089C134.622 32.276 134.796 32.3297 134.997 32.37C135.199 32.4236 135.387 32.4505 135.561 32.4505C135.95 32.4505 136.285 32.3431 136.567 32.1284C136.862 31.9272 137.104 31.5984 137.292 31.1423L137.473 30.6793L133.186 20.1533H136.265L138.781 27.6805L141.055 20.1533H144.034L139.667 31.7863C139.264 32.8597 138.748 33.6446 138.117 34.1411C137.5 34.6375 136.748 34.8857 135.863 34.8857Z" fill="#233375"/>
<path d="M38.5271 9.21115C37.9245 9.21115 37.3688 9.10548 36.86 8.89416C36.3591 8.675 35.9247 8.36976 35.5568 7.97841C35.189 7.58707 34.9033 7.12528 34.6998 6.59305C34.4963 6.06082 34.3945 5.48163 34.3945 4.85548C34.3945 4.34673 34.4611 3.86537 34.5941 3.41141C34.7272 2.95745 34.9189 2.54654 35.1694 2.17868C35.4199 1.81081 35.7134 1.49774 36.0499 1.23945C36.3943 0.973334 36.7739 0.769835 37.1887 0.62895C37.6036 0.480239 38.0458 0.405884 38.5154 0.405884C39.0163 0.405884 39.4859 0.488066 39.9242 0.652431C40.3625 0.816796 40.7461 1.0516 41.0748 1.35685C41.4113 1.65427 41.6814 2.0104 41.8849 2.42522L40.9691 2.80092C40.7187 2.3313 40.3821 1.96735 39.9595 1.70906C39.5446 1.44295 39.0672 1.30989 38.5271 1.30989C38.081 1.30989 37.6662 1.3999 37.2827 1.57992C36.907 1.75211 36.5782 1.99866 36.2965 2.31956C36.0147 2.63264 35.7955 3.00441 35.639 3.43489C35.4825 3.86537 35.4042 4.33499 35.4042 4.84374C35.4042 5.33683 35.4786 5.7947 35.6273 6.21736C35.7838 6.64001 36.003 7.00787 36.2847 7.32095C36.5665 7.63403 36.8991 7.87666 37.2827 8.04885C37.6662 8.22104 38.0888 8.30714 38.5506 8.30714C38.9498 8.30714 39.3137 8.24061 39.6425 8.10755C39.979 7.9745 40.2725 7.78665 40.523 7.54402C40.7735 7.30138 40.9691 7.01179 41.11 6.67523C41.2509 6.33867 41.3253 5.96298 41.3331 5.54816H38.7854V4.67937H42.3427V5.34857C42.3427 5.91994 42.2488 6.44042 42.061 6.91004C41.8731 7.37965 41.607 7.78665 41.2626 8.13103C40.9261 8.47542 40.523 8.74153 40.0534 8.92938C39.5916 9.11722 39.0828 9.21115 38.5271 9.21115Z" fill="#233375"/>
<path d="M46.3134 9.15244C45.8672 9.15244 45.4563 9.07418 45.0806 8.91764C44.7128 8.7611 44.3919 8.54195 44.1179 8.26018C43.844 7.97058 43.6327 7.63403 43.4839 7.25051C43.3352 6.85916 43.2609 6.42868 43.2609 5.95907C43.2609 5.49728 43.3313 5.07463 43.4722 4.69111C43.6209 4.29977 43.8244 3.9593 44.0827 3.6697C44.3488 3.38011 44.658 3.15704 45.0102 3.0005C45.3624 2.83614 45.7459 2.75395 46.1607 2.75395C46.5599 2.75395 46.9278 2.82831 47.2643 2.97702C47.6087 3.12573 47.9061 3.33314 48.1566 3.59926C48.4071 3.86537 48.5988 4.18236 48.7319 4.55023C48.8728 4.91809 48.9432 5.31726 48.9432 5.74774V6.13517H44.2353C44.2666 6.57348 44.3684 6.957 44.5406 7.28573C44.7206 7.61446 44.9593 7.86883 45.2567 8.04885C45.5542 8.22887 45.8985 8.31888 46.2899 8.31888C46.6734 8.31888 47.0061 8.24061 47.2878 8.08407C47.5774 7.91971 47.824 7.68099 48.0275 7.36791L48.8258 7.73186C48.6693 8.02928 48.4658 8.28366 48.2153 8.49499C47.9648 8.70631 47.6753 8.86676 47.3465 8.97634C47.0256 9.09374 46.6812 9.15244 46.3134 9.15244ZM46.1607 3.5523C45.8398 3.5523 45.5463 3.63057 45.2802 3.7871C45.0219 3.94364 44.8028 4.1628 44.6228 4.44456C44.4506 4.71851 44.3371 5.03941 44.2823 5.40727H47.957C47.9257 5.03941 47.8279 4.71851 47.6635 4.44456C47.4991 4.1628 47.2878 3.94364 47.0295 3.7871C46.7712 3.63057 46.4817 3.5523 46.1607 3.5523Z" fill="#233375"/>
<path d="M52.2929 9.15244C51.925 9.15244 51.608 9.07809 51.3419 8.92938C51.0758 8.78067 50.8684 8.56151 50.7197 8.27192C50.5788 7.98232 50.5083 7.63011 50.5083 7.21529V3.71666H49.393V2.91832H50.5083V0.887238H51.4476V2.91832H53.3495V3.71666H51.4476V7.16833C51.4476 7.52836 51.5219 7.81013 51.6706 8.01363C51.8272 8.2093 52.062 8.30714 52.3751 8.30714C52.5394 8.30714 52.7038 8.28366 52.8682 8.2367C53.0403 8.18191 53.193 8.11147 53.326 8.02537L53.6078 8.75327C53.4434 8.87068 53.2517 8.9646 53.0325 9.03504C52.8134 9.11331 52.5668 9.15244 52.2929 9.15244Z" fill="#233375"/>
<path d="M58.0334 1.14553C58.0334 1.26293 58.0021 1.37251 57.9394 1.47425C57.8846 1.56818 57.8064 1.64645 57.7046 1.70906C57.6107 1.76385 57.505 1.79124 57.3876 1.79124C57.2702 1.79124 57.1607 1.76385 57.0589 1.70906C56.965 1.64645 56.8867 1.56818 56.8241 1.47425C56.7693 1.37251 56.7419 1.26293 56.7419 1.14553C56.7419 1.02812 56.7693 0.922459 56.8241 0.828537C56.8867 0.726787 56.965 0.648518 57.0589 0.593729C57.1607 0.531114 57.2702 0.499806 57.3876 0.499806C57.505 0.499806 57.6107 0.531114 57.7046 0.593729C57.8064 0.648518 57.8846 0.726787 57.9394 0.828537C58.0021 0.922459 58.0334 1.02812 58.0334 1.14553ZM56.918 8.97634V2.91832H57.8573V8.97634H56.918Z" fill="#233375"/>
<path d="M61.5288 9.15244C61.1609 9.15244 60.8439 9.07809 60.5778 8.92938C60.3117 8.78067 60.1043 8.56151 59.9556 8.27192C59.8147 7.98232 59.7442 7.63011 59.7442 7.21529V3.71666H58.6289V2.91832H59.7442V0.887238H60.6835V2.91832H62.5854V3.71666H60.6835V7.16833C60.6835 7.52836 60.7578 7.81013 60.9065 8.01363C61.0631 8.2093 61.2979 8.30714 61.611 8.30714C61.7753 8.30714 61.9397 8.28366 62.1041 8.2367C62.2762 8.18191 62.4289 8.11147 62.5619 8.02537L62.8437 8.75327C62.6793 8.87068 62.4876 8.9646 62.2684 9.03504C62.0493 9.11331 61.8027 9.15244 61.5288 9.15244Z" fill="#233375"/>
<path d="M68.8425 9.15244C68.412 9.15244 68.0128 9.07418 67.6449 8.91764C67.2849 8.75327 66.9679 8.53021 66.694 8.24844C66.4279 7.95884 66.2205 7.61837 66.0717 7.22703C65.923 6.83568 65.8487 6.40912 65.8487 5.94733C65.8487 5.48554 65.923 5.05898 66.0717 4.66763C66.2283 4.27629 66.4396 3.93973 66.7057 3.65796C66.9797 3.36837 67.3006 3.1453 67.6684 2.98876C68.0363 2.8244 68.4355 2.74221 68.8659 2.74221C69.2964 2.74221 69.6917 2.8244 70.0517 2.98876C70.4196 3.1453 70.7366 3.36837 71.0027 3.65796C71.2766 3.93973 71.488 4.27629 71.6367 4.66763C71.7854 5.05898 71.8597 5.48554 71.8597 5.94733C71.8597 6.40912 71.7815 6.83568 71.6249 7.22703C71.4762 7.61837 71.2649 7.95884 70.9909 8.24844C70.7248 8.53021 70.4078 8.75327 70.04 8.91764C69.6721 9.07418 69.2729 9.15244 68.8425 9.15244ZM68.8542 8.2954C69.1516 8.2954 69.4217 8.2367 69.6643 8.11929C69.9147 8.00189 70.13 7.84144 70.31 7.63794C70.4979 7.42661 70.6426 7.18007 70.7444 6.8983C70.8461 6.6087 70.897 6.29171 70.897 5.94733C70.897 5.60295 70.8461 5.28987 70.7444 5.0081C70.6426 4.71851 70.4979 4.47196 70.31 4.26846C70.13 4.05713 69.9147 3.89277 69.6643 3.77536C69.4217 3.65796 69.1516 3.59926 68.8542 3.59926C68.5568 3.59926 68.2828 3.65796 68.0324 3.77536C67.7897 3.89277 67.5745 4.05713 67.3867 4.26846C67.2066 4.47196 67.0658 4.71851 66.964 5.0081C66.8623 5.28987 66.8114 5.60295 66.8114 5.94733C66.8114 6.29171 66.8623 6.6087 66.964 6.8983C67.0658 7.18007 67.2066 7.42661 67.3867 7.63794C67.5745 7.84144 67.7897 8.00189 68.0324 8.11929C68.2828 8.2367 68.5568 8.2954 68.8542 8.2954Z" fill="#233375"/>
<path d="M72.9587 8.97634V2.91832H73.804L73.851 3.88103C74.031 3.53664 74.2893 3.2627 74.6259 3.0592C74.9702 2.84788 75.3655 2.74221 75.8116 2.74221C76.2734 2.74221 76.6765 2.85179 77.0209 3.07094C77.3653 3.2901 77.6275 3.60317 77.8075 4.01017C77.9953 4.40934 78.0893 4.88287 78.0893 5.43075V8.97634H77.15V5.48946C77.15 4.88678 77.017 4.42108 76.7509 4.09235C76.4926 3.76362 76.1208 3.59926 75.6355 3.59926C75.299 3.59926 74.9976 3.67753 74.7315 3.83407C74.4732 3.98278 74.2697 4.1941 74.121 4.46804C73.9723 4.73416 73.898 5.03941 73.898 5.38379V8.97634H72.9587Z" fill="#233375"/>
<path d="M4.69308 3.40099C3.95314 2.98167 3.07128 2.94417 2.30218 3.29326L15.1974 15.459L19.4138 11.4712L4.69308 3.40099ZM1.11738 4.41921C0.9547 4.74347 0.867188 5.10418 0.867188 5.47545V27.7294C0.867188 28.1022 0.955261 28.4576 1.11963 28.775L14.0098 16.5823L1.11738 4.41921ZM15.1992 17.7041L2.32467 29.882C2.66631 30.0309 3.02982 30.0959 3.39278 30.0959C3.841 30.0959 4.2881 29.995 4.69313 29.7658L19.4166 21.6834L15.1992 17.7041ZM25.0203 14.5449C25.0152 14.5417 25.0096 14.5385 25.0046 14.5359L20.9173 12.2951L16.3862 16.5808L20.9201 20.858C20.9201 20.858 25.0152 18.6103 25.0203 18.6077C25.7804 18.173 26.2342 17.4136 26.2342 16.576C26.2342 15.7384 25.7804 14.979 25.0203 14.5449Z" fill="#233375"/>
</svg>
