<svg width="239" height="44" viewBox="0 0 239 44" fill="none" xmlns="http://www.w3.org/2000/svg">
<path fill-rule="evenodd" clip-rule="evenodd" d="M34.5043 0C34.5723 0.120074 34.6465 0.236601 34.7264 0.349206C35.3214 1.09932 35.2682 1.50438 34.6538 2.24471L34.1412 2.85995L34.1347 2.86731C32.9708 4.26366 31.8053 5.66209 30.7427 7.1336C30.3046 7.73629 29.96 8.40496 29.6152 9.07446C29.3838 9.52372 29.1522 9.97332 28.8919 10.4036C28.6824 10.7486 28.3122 11.1243 27.9504 11.2109C27.625 11.2878 27.0242 11.0908 26.8791 10.8282C26.6777 10.465 26.6079 9.82948 26.798 9.48303C27.8219 7.6127 28.8597 5.73817 30.0582 3.97816C30.6175 3.15282 31.3023 2.41287 31.9865 1.6735C32.3155 1.31795 32.6445 0.962534 32.9594 0.597845C33.0718 0.471838 33.1686 0.32571 33.2649 0.180469C33.3053 0.11963 33.3457 0.0589627 33.3869 0H34.5043ZM0.279092 20.1743C0.314013 20.1592 0.342386 20.1403 0.359028 20.1143C0.668948 19.6198 1.17202 19.4522 1.61617 19.6715C1.96947 19.8447 2.38715 20.3001 2.41225 20.6563C2.56749 22.9123 2.64224 25.1747 2.71672 27.4362L2.72654 27.734C2.75327 28.5609 2.25866 29.0344 1.50568 28.9911C0.946949 28.959 0.586558 28.6447 0.490253 28.1111C0.424231 27.7407 0.383854 27.3659 0.343477 26.991C0.312103 26.6998 0.280729 26.4086 0.237351 26.1192C0.22753 26.0535 0.205977 25.9894 0.178968 25.926C0.152505 25.8646 0.120858 25.8039 0.0892113 25.7431L0.0883929 25.7407C0.0572917 25.681 0.0261905 25.6212 0 25.5605L0.00272817 20.254C0.0411954 20.2398 0.0856647 20.2292 0.130134 20.2185C0.183061 20.2058 0.235987 20.1931 0.279092 20.1743ZM28.878 38.1124C30.2999 40.3026 31.9243 42.3238 33.9456 44H34.225C34.3221 43.9394 34.4233 43.8857 34.5281 43.8393C35.4682 43.5013 35.6957 42.6884 35.0644 41.9313C33.6368 40.2216 32.2121 38.51 30.7902 36.7966C30.2915 36.1945 29.7019 36.0479 29.1432 36.404C28.5692 36.7742 28.4366 37.4307 28.878 38.1124ZM238.301 15.2254L237.296 15.1528V11.6202L237.075 11.595C237.006 11.879 236.932 12.1623 236.859 12.4456C236.691 13.1003 236.522 13.755 236.4 14.418C236.277 15.0815 236.008 15.3707 235.266 15.1164C234.977 13.9319 234.676 12.7097 234.377 11.4847L234.192 11.5015V15.1332H233.315V10.1479H234.76L235.665 13.4263L235.805 13.4542L236.415 11.2542C236.738 10.1005 236.74 10.1005 237.958 10.0893H237.962C238.076 10.0893 238.191 10.0683 238.306 10.0571L238.301 15.2254ZM177.436 20.5681C177.436 20.8616 177.437 21.1575 177.437 21.4567C177.567 21.4144 177.684 21.3738 177.793 21.3358C177.973 21.2733 178.132 21.2179 178.292 21.1745C179.569 20.8392 180.689 21.1242 181.622 22.0601C182.555 22.996 182.828 24.1441 182.473 25.4013C182.001 27.0761 180.459 28.0664 178.742 27.8457C177.936 27.7522 177.193 27.3668 176.653 26.7625C176.112 26.1581 175.812 25.3767 175.808 24.566C175.785 23.1988 175.786 21.8316 175.787 20.4644C175.788 19.714 175.788 18.9636 175.785 18.2132C175.785 18.0244 175.766 17.835 175.747 17.6453C175.738 17.5641 175.73 17.4829 175.723 17.4017H171.882V40.2956H175.837V31.0766C177.331 31.7778 178.794 32.0236 180.29 31.761C184.445 31.0333 186.99 27.5035 186.447 23.2935C185.94 19.367 181.684 16.3512 177.867 17.2327C177.7 17.2704 177.457 17.5036 177.457 17.6517C177.431 18.614 177.433 19.5771 177.436 20.5681ZM100.435 21.8128C99.816 20.7959 99.063 20.416 98.1873 20.3531C96.7905 20.2582 95.6198 20.7638 94.8878 22.0153C94.1196 23.3298 94.2033 24.6456 95.0695 25.8846C95.9076 27.0788 97.0824 27.6446 98.5128 27.3624C99.26 27.2227 99.9794 26.8246 100.652 26.4433C101.025 26.231 101.27 26.1374 101.64 26.407C102.193 26.8117 102.762 27.1986 103.343 27.594L103.345 27.5954C103.626 27.7863 103.909 27.9791 104.195 28.1768C103.002 29.6783 101.58 30.6463 99.7391 31.0305C96.6003 31.687 93.5791 30.5821 91.8036 28.058C89.749 25.1387 90.1498 21.0739 92.741 18.5485C95.2747 16.083 99.2614 15.7743 102.006 17.8961C103.649 19.1658 104.541 20.8909 104.723 22.9694C104.748 23.2629 104.765 23.5574 104.781 23.8526L104.782 23.8743L104.798 24.1608L104.813 24.4115C104.821 24.536 104.831 24.6606 104.842 24.7853C104.889 25.3147 104.716 25.527 104.143 25.5186C103.748 25.5127 103.353 25.5052 102.958 25.4976L102.955 25.4975L102.951 25.4974L102.948 25.4973C101.203 25.4637 99.4564 25.4301 97.7178 25.5382C96.268 25.6276 95.6716 24.1637 96.1463 23.0797C96.504 22.2598 97.141 21.8156 98.0602 21.8226L100.435 21.8128ZM203.406 17.3695H199.634V18.1266C199.633 18.6936 199.634 19.2607 199.636 19.8279L199.636 20.0407C199.639 21.5195 199.641 22.9987 199.619 24.478C199.591 26.3748 198.129 27.9002 196.322 27.9826C194.46 28.0678 192.853 26.7785 192.61 25.0032C192.347 23.0825 193.537 21.3463 195.473 21.025C195.976 20.9413 196.504 21.0059 197.051 21.0729C197.307 21.1043 197.567 21.1362 197.831 21.1535L197.832 20.775L197.833 20.3956C197.836 19.5178 197.84 18.5892 197.807 17.6615C197.803 17.5134 197.497 17.2494 197.316 17.234L197.282 17.2313C196.58 17.1734 195.858 17.1139 195.17 17.1991C193.315 17.4265 191.617 18.3535 190.422 19.7908C189.227 21.2281 188.626 23.0673 188.741 24.9328C188.857 26.7982 189.68 28.5492 191.043 29.8281C192.406 31.1071 194.206 31.8174 196.075 31.8141C196.832 31.8055 197.586 31.6492 198.353 31.4904L198.355 31.4899C198.713 31.4156 199.074 31.3409 199.439 31.2805C199.328 31.7389 199.658 31.7309 200.001 31.7227C200.046 31.7216 200.092 31.7205 200.137 31.7205L200.42 31.7193L200.613 31.7176L200.877 31.7144L200.885 31.7143C201.474 31.707 202.063 31.6997 202.652 31.7331C203.276 31.7666 203.48 31.592 203.48 30.9285C203.452 26.6766 203.452 22.4135 203.452 18.1559C203.452 17.9059 203.423 17.6489 203.406 17.3695ZM83.4701 30.6477C83.1097 30.6923 82.7393 30.7529 82.362 30.8146C81.5574 30.9461 80.7215 31.0826 79.8859 31.0808C76.6396 31.0808 73.6504 28.4184 73.1181 25.2057C72.4197 20.9593 75.1017 17.2438 79.3522 16.5705C82.6863 16.0481 86.078 18.311 87.0907 21.8072C87.3401 22.6999 87.4784 23.6199 87.5027 24.5464C87.5378 25.5775 87.5346 26.6102 87.531 27.6424L87.5291 28.5275C87.5291 28.7443 87.5294 28.9611 87.5308 29.1778L87.5324 29.4095C87.5349 29.6724 87.5387 29.9353 87.5447 30.198C87.5613 30.8726 87.3141 31.05 86.6981 31.0165C86.3587 30.9974 86.0183 31.0016 85.6781 31.0058C85.2967 31.0105 84.9153 31.0152 84.5358 30.9872C84.5003 30.9846 84.4651 30.9804 84.4299 30.9747L84.4021 30.97L84.3653 30.9628C84.3181 30.953 84.2709 30.9409 84.2237 30.927C84.1956 30.9186 84.1675 30.9097 84.1391 30.9003C84.0338 30.865 83.9277 30.8226 83.8194 30.7794C83.7059 30.734 83.5899 30.6877 83.4701 30.6477ZM80.2574 27.3023C81.1744 27.2969 82.0523 26.9309 82.7019 26.2836C83.3512 25.6362 83.72 24.7593 83.7285 23.8424C83.7285 21.9497 82.0998 20.3196 80.2113 20.335C79.7516 20.3417 79.2979 20.4389 78.8762 20.621C78.4541 20.8031 78.0722 21.0665 77.7522 21.3963C77.4319 21.726 77.1798 22.1155 77.0104 22.5427C76.8407 22.9698 76.7569 23.4262 76.764 23.8857C76.7684 24.3396 76.8622 24.7882 77.0401 25.2058C77.2183 25.6233 77.4769 26.0017 77.8015 26.319C78.1262 26.6364 78.51 26.8867 78.9315 27.0554C79.3528 27.2241 79.8035 27.308 80.2574 27.3023ZM132.107 28.8081C132.106 28.5391 132.105 28.2654 132.105 27.9854L131.882 27.9855C131.545 27.9857 131.278 27.9859 131.014 27.9812C129.457 27.9728 128.782 27.3512 128.758 25.8036C128.744 24.7009 128.743 23.5982 128.743 22.4955L128.741 21.462L128.739 20.6815C128.738 20.3174 128.735 19.9532 128.732 19.5891C128.727 19.1588 128.902 19.0038 129.301 19.0038H131.117C131.471 19.0052 131.689 18.9088 131.689 18.4898C131.687 18.3493 131.685 18.2088 131.685 18.0681C131.685 17.8788 131.685 17.6893 131.686 17.4997C131.687 16.9224 131.689 16.3445 131.658 15.7687C131.648 15.6007 131.378 15.4235 131.188 15.2983L131.17 15.2868C131.098 15.2423 130.991 15.2535 130.887 15.2645C130.861 15.2672 130.835 15.2699 130.81 15.2718L130.776 15.2738L130.751 15.2743C129.743 15.2729 129.236 15.2722 128.982 15.0185C128.725 14.7624 128.725 14.2484 128.725 13.2154V11.595L127.903 12.1314C126.883 12.7968 125.935 13.4151 124.995 14.0465C124.936 14.0987 124.889 14.1633 124.858 14.2358C124.827 14.3082 124.812 14.3867 124.815 14.4655C124.893 15.1234 124.603 15.3595 123.977 15.2799C123.513 15.2212 123.359 15.4531 123.373 15.8931C123.375 15.9672 123.377 16.0412 123.378 16.1153L123.381 16.3025C123.381 16.4366 123.381 16.5706 123.381 16.7047L123.377 17.1502C123.375 17.3598 123.373 17.5693 123.373 17.7788C123.372 18.3699 123.371 18.666 123.518 18.8301C123.666 18.9948 123.961 19.0265 124.555 19.09L124.559 19.0904C124.643 19.1202 124.723 19.1615 124.795 19.2133V20.0193C124.795 20.7342 124.786 21.4491 124.777 22.1638V22.179C124.758 23.7423 124.739 25.3047 124.808 26.8638C124.973 30.6017 128.07 32.6047 131.678 31.5794C131.848 31.5319 132.085 31.2945 132.085 31.1394C132.113 30.3762 132.111 29.6131 132.107 28.8081ZM151.37 28.3891C151.37 28.9685 151.374 29.5232 151.374 30.0649L151.373 30.3347C151.372 30.464 151.372 30.5926 151.37 30.7208C151.369 30.895 151.366 31.0682 151.362 31.2411C151.36 31.3442 151.357 31.4472 151.354 31.5501C151.332 31.6418 151.289 31.727 151.227 31.7987C151.166 31.8703 151.088 31.9263 151.001 31.9622C147.442 33.0796 144.21 31.0361 144.057 27.456C143.969 25.3495 144.006 23.2365 144.043 21.1265L144.057 20.2665C144.066 19.6268 143.859 19.3502 143.219 19.4284C142.661 19.4941 142.494 19.2343 142.521 18.6965C142.563 17.9073 142.557 17.1139 142.521 16.3219C142.501 15.8372 142.669 15.6235 143.158 15.6822C143.799 15.7632 144.122 15.5425 144.064 14.8441C144.071 14.7449 144.1 14.6486 144.148 14.5617C144.169 14.525 144.192 14.4905 144.219 14.4583C144.255 14.4143 144.297 14.375 144.344 14.3412C145.193 13.7686 146.053 13.2121 146.998 12.5999L147.009 12.5922L147.918 12.0029V14.1973L147.919 14.4966C147.92 15.1282 147.921 15.4251 148.069 15.5627C148.2 15.6848 148.448 15.6816 148.916 15.6755C149.049 15.6737 149.2 15.6718 149.371 15.6724L149.391 15.6725C150.942 15.6793 150.944 15.6793 150.945 17.255C150.945 17.7899 150.926 18.3263 150.953 18.8599C150.976 19.2915 150.797 19.441 150.385 19.4298C150.29 19.4273 150.196 19.4256 150.101 19.4244C150.006 19.4232 149.91 19.4226 149.815 19.4224C149.586 19.422 149.357 19.4241 149.128 19.4261C148.918 19.4279 148.709 19.4298 148.499 19.4298C148.119 19.4298 147.94 19.5975 147.94 19.9732C147.949 20.6271 147.954 21.281 147.958 21.9347C147.97 23.5153 147.982 25.0949 148.041 26.671C148.083 27.7884 148.798 28.3653 149.931 28.4002C150.096 28.4002 150.259 28.3987 150.427 28.3968L150.576 28.3951C150.822 28.3921 151.081 28.3891 151.37 28.3891ZM224.401 21.6424L227.74 19.8265C226.751 18.2635 225.572 17.181 223.642 17.1348C221.571 17.0916 219.779 18.0721 219.128 19.7665C218.459 21.5097 219.062 23.3745 220.738 24.7071C220.873 24.8136 221.009 24.9187 221.146 25.023L221.373 25.1941L221.582 25.3515C221.713 25.4499 221.844 25.5482 221.975 25.6473C222.118 25.756 222.261 25.8656 222.403 25.9768C222.486 26.042 222.571 26.1062 222.656 26.1705C222.964 26.4025 223.275 26.6367 223.505 26.9308C223.651 27.1184 223.71 27.3756 223.769 27.6328C223.785 27.7035 223.801 27.7743 223.819 27.8435C223.83 27.8863 223.842 27.9286 223.855 27.97C223.726 27.997 223.59 28.0421 223.454 28.0871C223.162 28.1842 222.871 28.2808 222.65 28.1949C222.317 28.0654 222.072 27.6536 221.861 27.2992L221.812 27.2172C221.726 27.0728 221.708 26.8877 221.687 26.6739L221.687 26.6696V26.6665C221.677 26.5637 221.666 26.4545 221.647 26.3399L218.275 28.269C218.6 30.2441 219.631 31.4356 221.488 31.8392C222.281 32.0042 223.095 32.0405 223.9 31.9468C226.048 31.7065 227.581 30.2832 227.877 28.2466C228.124 26.5355 227.551 25.073 226.189 23.9793C226.043 23.8623 225.896 23.747 225.748 23.6328C225.432 23.3897 225.112 23.1517 224.793 22.9137L224.786 22.9086L224.784 22.9065C224.249 22.5088 223.714 22.1108 223.199 21.6885C223.083 21.5942 223.067 21.3796 223.05 21.1641C223.042 21.0637 223.035 20.963 223.017 20.8742C223.11 20.8887 223.205 20.8978 223.3 20.9069C223.524 20.9284 223.749 20.95 223.939 21.0432C224.074 21.1093 224.167 21.2643 224.263 21.4254L224.305 21.4949L224.324 21.5261C224.348 21.5659 224.374 21.6052 224.401 21.6424ZM215.686 19.8349L212.38 21.6354C212.338 21.5768 212.301 21.5169 212.264 21.4589C212.179 21.3232 212.099 21.1973 211.988 21.12C211.757 20.9608 211.497 20.8466 211.224 20.7834C211.132 20.761 210.873 20.9859 210.89 21.046C210.956 21.2946 211.038 21.6047 211.222 21.7444C211.692 22.1177 212.175 22.4748 212.657 22.8318L213.114 23.1709C213.319 23.3236 213.523 23.4772 213.725 23.633C213.874 23.7471 214.021 23.8624 214.167 23.9793C215.506 25.0535 216.085 26.4936 215.86 28.1796C215.58 30.2301 214.091 31.6716 211.937 31.9286C211.018 32.0329 210.087 31.978 209.186 31.7666C207.429 31.3475 206.582 30.0317 206.222 28.2745L209.614 26.3344C209.624 26.3914 209.633 26.4466 209.641 26.5001L209.663 26.6598C209.69 26.8692 209.714 27.0507 209.782 27.2144C209.909 27.5217 210.062 27.8625 210.299 28.072C210.696 28.4184 211.528 28.3514 211.777 28.0091C212.133 27.5105 211.736 27.1263 211.439 26.8666C210.831 26.3377 210.191 25.8439 209.551 25.3505L209.546 25.3468L209.536 25.3389C209.38 25.2181 209.223 25.0973 209.067 24.976C208.948 24.8835 208.829 24.7906 208.711 24.6973C207.746 23.936 207.043 22.9974 206.895 21.7458C206.616 19.3544 208.166 17.4882 210.566 17.1838C212.879 16.9016 214.541 17.7746 215.686 19.8349ZM156.046 36.7356L156.046 36.7382C156.011 36.8274 155.973 36.9235 155.93 37.0299C156.297 37.0299 156.655 37.0276 157.007 37.0253C157.86 37.0199 158.679 37.0147 159.499 37.0424C160.02 37.0592 160.272 36.8748 160.488 36.404C163.323 30.299 166.159 24.1944 168.998 18.0903C169.021 18.0369 169.044 17.9828 169.066 17.9264L169.117 17.7943L169.154 17.697C169.19 17.6014 169.23 17.4963 169.277 17.3765C169.05 17.3765 168.826 17.3772 168.605 17.3783L168.144 17.3809C167.261 17.386 166.413 17.3909 165.567 17.3653C165.053 17.35 164.785 17.5134 164.567 17.9925C161.798 24.0752 159.025 30.1574 156.249 36.2392C156.179 36.3953 156.118 36.5507 156.046 36.7356ZM139.628 32.0557H135.298C135.292 31.9392 135.284 31.8288 135.277 31.7218L135.269 31.5715L135.265 31.4643C135.263 31.4257 135.263 31.3873 135.263 31.349C135.263 30.5728 135.264 29.7966 135.265 29.0204L135.268 26.8638V26.7442C135.273 23.7939 135.278 20.8436 135.263 17.8933C135.263 17.2271 135.47 17.0553 136.101 17.0832C137.062 17.1289 138.026 17.1073 138.989 17.0857L138.992 17.0856L139.099 17.0832C139.477 17.0832 139.642 17.2005 139.642 17.6028C139.627 21.8027 139.628 25.9973 139.628 30.2484V30.2516V32.0557ZM70.6144 24.8027L70.6153 23.9081L70.6142 22.031C70.6123 20.3754 70.6106 18.7192 70.6207 17.0608C70.6237 16.5929 70.4909 16.3806 69.9881 16.396C69.0103 16.4239 68.0325 16.4267 67.0547 16.396C66.5282 16.3834 66.3689 16.5901 66.3689 17.0944C66.3828 21.6126 66.3828 26.129 66.3689 30.6436C66.3661 31.1772 66.5282 31.3978 67.0869 31.3769C68.0172 31.3392 68.9516 31.335 69.8806 31.3769C70.4728 31.4048 70.6349 31.1827 70.6278 30.6128C70.6082 28.9507 70.6109 27.2886 70.6136 25.6264L70.6144 24.8027ZM113.605 20.3266C113.605 20.0573 113.604 19.7905 113.602 19.5256V19.5199C113.597 18.7221 113.592 17.942 113.634 17.1642C113.644 16.9938 114.022 16.7228 114.246 16.7032C117.613 16.3988 120.253 18.5359 120.464 21.9134C120.591 23.9776 120.601 26.0493 120.61 28.1213V28.1356C120.615 29.0103 120.619 29.8851 120.631 30.7595C120.622 30.8617 120.602 30.9628 120.573 31.0612H116.723L116.709 30.8377C116.696 30.6475 116.684 30.4567 116.68 30.265L116.671 29.6409L116.666 29.2355L116.66 28.6487L116.655 28.041C116.641 26.366 116.626 24.6908 116.547 23.0197C116.451 21.0027 115.702 20.3671 113.605 20.3266ZM111.837 25.6279C111.838 25.0345 111.84 24.4413 111.84 23.848L111.831 23.8703C111.831 21.6787 111.819 19.4913 111.84 17.3053C111.84 16.7884 111.726 16.53 111.141 16.5565C110.257 16.5915 109.371 16.5719 108.487 16.5565C108.078 16.5426 107.9 16.6865 107.9 17.1153C107.904 21.6047 107.899 26.095 107.885 30.5863C107.884 30.9844 108.032 31.1184 108.419 31.1115C109.324 31.0947 110.235 31.078 111.14 31.1184C111.689 31.1436 111.861 30.9718 111.852 30.4131C111.83 28.8169 111.833 27.2222 111.837 25.6279ZM33.5658 21.0753L33.7145 20.238C33.912 19.1214 34.1742 17.6417 34.4541 16.1655C34.518 15.8702 34.6522 15.5946 34.8453 15.3623C35.221 14.9055 35.7394 14.8776 36.2422 15.1164C36.8205 15.3958 36.8972 15.9336 36.7924 16.4923C36.7139 16.9083 36.6211 17.3221 36.5284 17.7361C36.4233 18.2049 36.3183 18.6738 36.2337 19.1463C35.5353 23.1705 36.3161 26.9392 38.2116 30.515C38.2539 30.5928 38.2981 30.6705 38.3426 30.7488C38.3898 30.8315 38.4373 30.9147 38.4831 30.9991C38.5494 31.1216 38.6127 31.2465 38.667 31.3755C38.9562 32.0599 38.7914 32.6494 38.2479 32.9623C37.6363 33.3171 37.0677 33.1983 36.6487 32.4999C36.1344 31.6434 35.6712 30.7572 35.2617 29.846C34.1259 27.3107 33.6872 24.619 33.5658 21.0753ZM44.0308 9.9398C40.5723 12.8787 38.7103 16.6124 38.4588 21.0069V21.5684C38.4602 22.4693 38.8694 23.063 39.5566 23.0797C40.2439 23.0965 40.6364 22.5699 40.7483 21.6508C40.8588 20.5443 41.035 19.4454 41.2762 18.3599C41.941 15.643 43.5209 13.4933 45.5993 11.6775C46.2797 11.0796 46.3312 10.4776 45.8342 9.91886C45.3704 9.39924 44.672 9.39365 44.0308 9.9398ZM39.6726 40.054C39.5629 40.1794 39.4658 40.3062 39.373 40.427C39.1799 40.6788 39.0066 40.9047 38.7829 41.0387C38.3276 41.3083 37.815 41.1784 37.4516 40.7747C37.0445 40.3247 36.6244 39.8835 36.2042 39.4422L36.2026 39.4408C35.1618 38.3472 34.121 37.2533 33.278 36.0255C32.3289 34.6429 31.6171 33.0931 30.9083 31.5498L30.8971 31.5258C30.7261 31.1532 30.555 30.781 30.381 30.4117C30.2328 30.0988 30.3389 29.48 30.5722 29.2202C30.8057 28.9604 31.4103 28.783 31.7374 28.8975C32.1033 29.0246 32.4566 29.4716 32.6159 29.8613C33.4777 31.9566 34.4904 33.9708 35.932 35.728C36.503 36.4232 37.1255 37.0746 37.7487 37.7267C38.1211 38.1163 38.4935 38.5062 38.8555 38.9058C39.1389 39.2117 39.3485 39.5874 39.6726 40.054ZM24.5326 16.5552C24.3271 18.2984 24.1512 20.0598 24.0115 21.3714C24.0409 21.8731 24.0628 22.3299 24.083 22.7555L24.0854 22.8022V22.8062C24.1288 23.7116 24.1654 24.4765 24.2518 25.2351C24.3836 26.318 24.5699 27.3935 24.8106 28.4575C24.974 29.2076 25.5745 29.6253 26.1528 29.5093C26.8275 29.3724 27.1726 28.8263 27.0845 28.0217C27.0673 27.8365 27.0403 27.6523 27.0035 27.47C26.4014 24.6959 26.3261 21.8966 26.6054 19.082C26.6409 18.7265 26.6813 18.3716 26.7217 18.0167L26.7274 17.9649C26.7901 17.4155 26.8529 16.8662 26.8987 16.3149C26.9489 15.7059 26.5607 15.2729 26.0314 15.2324C25.6473 15.2031 25.1876 15.474 24.8537 15.7325C24.6512 15.8875 24.5675 16.266 24.5326 16.5552ZM4.84142 22.1006C4.9811 20.0319 5.10114 18.2258 5.24082 16.4211C5.30248 15.6221 5.88058 15.0871 6.54271 15.1639C7.25231 15.2491 7.64353 15.9029 7.5625 16.7158C7.27468 19.6491 7.1309 22.5937 7.44928 25.5424C7.54422 26.4181 7.61406 27.2995 7.64898 28.1796C7.68254 28.9911 7.31533 29.4367 6.62783 29.5149C6.01617 29.5862 5.4588 29.1224 5.38487 28.3695C5.22882 26.787 5.09814 25.2015 4.97565 23.7123L4.91399 22.9683L4.84142 22.1006ZM153.933 17.3807L158.593 27.111L158.731 26.8125L159.14 25.9298L159.161 25.8836C159.683 24.759 160.179 23.6886 160.654 22.6076C160.701 22.4999 160.695 22.3545 160.663 22.2098C160.655 22.1736 160.646 22.1374 160.635 22.1018L160.619 22.0506L160.604 22.0075L160.594 21.9813C160.583 21.9519 160.571 21.9235 160.559 21.8966C160.417 21.5788 160.256 21.2668 160.094 20.9549C159.805 20.3952 159.515 19.8356 159.336 19.2427C158.855 17.6698 157.914 17.0957 156.307 17.3598C155.811 17.4413 155.297 17.4218 154.745 17.4008L154.449 17.3901C154.28 17.3847 154.109 17.3807 153.933 17.3807ZM84.6667 8.75277C85.0828 9.00942 85.4854 9.25792 85.8799 9.50404C86.3203 9.77863 86.7502 10.0502 87.1772 10.3268C87.2678 10.3917 87.3436 10.4751 87.3995 10.5714C87.4557 10.6676 87.4909 10.7747 87.5027 10.8855C87.5201 12.8006 87.5188 14.7158 87.5174 16.7015V16.8009L87.5168 18.4632C86.5391 17.1586 85.4342 16.2283 84.0723 15.6249C83.9866 15.5762 83.9132 15.5084 83.8578 15.4267C83.8027 15.3451 83.767 15.2518 83.7536 15.1542C83.737 13.3375 83.7381 11.5253 83.7391 9.62705L83.7397 8.17982C84.057 8.37652 84.3653 8.56678 84.6667 8.75277ZM51.4547 27.2504C51.6787 27.3731 51.9024 27.4955 52.1182 27.625L52.2162 27.4602C52.7902 27.5049 53.1184 27.2255 53.3418 26.7073C53.5655 26.1891 53.3435 25.7966 52.9675 25.4767C52.7427 25.3124 52.5051 25.1667 52.2565 25.0409C50.9421 24.2601 50.188 23.13 50.4003 21.5837C50.4805 21.003 50.7541 20.4429 51.0226 19.8933C51.0815 19.7728 51.1402 19.6528 51.1964 19.5332C51.6113 18.6518 51.2117 17.7215 50.3332 17.6838C49.6975 17.6573 49.3219 18.0917 48.9991 18.5652C47.3497 20.9817 47.7799 24.4556 50.023 26.3399C50.4497 26.7 50.9536 26.9759 51.4547 27.2504ZM16.0204 15.157C16.7453 15.157 17.2857 15.8121 17.2355 16.5538C17.0958 18.73 16.9562 20.9077 16.8571 23.0867C16.8407 23.4338 16.8762 23.783 16.9117 24.1325C16.9245 24.2611 16.9376 24.3898 16.948 24.5184C16.96 24.6662 16.9687 24.8138 16.9701 24.9613C16.9701 25.7505 16.5079 26.2841 15.8526 26.3148C15.6938 26.318 15.5359 26.2894 15.3883 26.2308C15.2404 26.1722 15.1059 26.0848 14.9924 25.9736C14.8786 25.8624 14.7886 25.7297 14.727 25.5832C14.6653 25.4367 14.6334 25.2794 14.6334 25.1205C14.5592 23.4513 14.5229 21.7779 14.5619 20.1087C14.5848 19.1524 14.6885 18.197 14.7922 17.2424C14.8214 16.9727 14.8505 16.7031 14.8778 16.4336C14.949 15.6752 15.4349 15.1611 16.0204 15.157ZM19.343 21.5858C19.3441 21.7402 19.3447 21.8946 19.3447 22.0489L19.1602 22.0698C19.2325 22.683 19.3027 23.2966 19.3728 23.9102C19.5414 25.3862 19.7102 26.8625 19.9075 28.3346C20.0193 29.1699 20.5683 29.6043 21.1955 29.5093C21.9441 29.3948 22.2736 28.8752 22.1732 27.9491C22.1514 27.7498 22.1285 27.5505 22.105 27.3513L22.0778 27.1225L22.0134 26.5896C21.8955 25.6173 21.7777 24.6449 21.7108 23.6692C21.6546 22.8552 21.6486 22.0385 21.6426 21.2215C21.6391 20.7164 21.6355 20.2112 21.62 19.7064C21.5949 18.9326 21.2053 18.5191 20.5516 18.5051C19.86 18.4926 19.3599 18.987 19.3447 19.7497C19.3346 20.2581 19.3378 20.7696 19.3414 21.2813L19.343 21.5858ZM137.489 15.5997C136.809 15.6096 136.152 15.3514 135.66 14.881C135.168 14.4106 134.881 13.7657 134.861 13.0855C134.857 12.7467 134.921 12.4107 135.049 12.0969C135.177 11.7832 135.365 11.4979 135.604 11.2577C135.843 11.0175 136.127 10.8272 136.44 10.6978C136.754 10.5685 137.089 10.5026 137.428 10.5041C138.886 10.4943 140.027 11.5895 140.044 13.0184C140.047 13.3559 139.983 13.6907 139.856 14.0033C139.729 14.3161 139.541 14.6005 139.304 14.8405C139.066 15.0804 138.784 15.2709 138.472 15.4013C138.161 15.5316 137.827 15.599 137.489 15.5997ZM65.88 12.3381C65.8715 13.7056 67.0771 14.8832 68.4878 14.8832C69.1671 14.8754 69.8159 14.5997 70.2928 14.116C70.7697 13.6322 71.0362 12.9797 71.0343 12.3004C71.0267 11.6318 70.7541 10.9936 70.2764 10.5257C69.7987 10.0578 69.1551 9.79834 68.4865 9.80431C67.8061 9.79865 67.1507 10.0615 66.6627 10.5358C66.1749 11.0102 65.8936 11.6578 65.88 12.3381ZM49.7313 30.0222C49.6882 30.0791 49.6471 30.1351 49.6069 30.1897C49.4411 30.4151 49.2929 30.6162 49.1011 30.7637C48.9124 30.9099 48.6761 30.9811 48.4379 30.9632C48.2 30.9454 47.9769 30.84 47.8118 30.6673L47.5387 30.4064L47.5363 30.4039L47.5346 30.4027C46.657 29.5651 45.7758 28.7239 45.0113 27.7912C44.5552 27.2346 44.2676 26.523 43.9902 25.8364L43.9078 25.6331C43.6172 24.918 43.8827 24.348 44.5099 24.0743C45.1371 23.8005 45.7237 23.996 46.0309 24.7336C46.7001 26.3526 47.7905 27.7629 49.1893 28.8179C49.3696 28.9579 49.4899 29.1783 49.6271 29.43L49.6288 29.4324C49.6629 29.4949 49.6981 29.5593 49.7354 29.6249C49.7766 29.6975 49.8208 29.7715 49.8694 29.846C49.8208 29.9054 49.775 29.9643 49.7313 30.0222ZM35.9868 7.6779C36.0253 7.56461 36.0695 7.43554 36.1262 7.28443C36.097 7.25244 36.0681 7.21838 36.0392 7.18291C35.992 7.12487 35.9448 7.06307 35.8973 7.00039C35.7189 6.76546 35.5312 6.51805 35.281 6.40862C35.0349 6.2881 34.7518 6.26682 34.4907 6.34925C34.2293 6.43171 34.0097 6.61149 33.8771 6.85144C32.8911 8.49594 31.9278 10.1563 30.9872 11.8325C30.8573 12.0574 30.7945 12.4806 30.92 12.6706C31.1427 13.0247 31.4698 13.3009 31.8561 13.4612C32.4104 13.6484 32.8088 13.2824 33.0881 12.7949C33.5827 11.9397 34.0828 11.0865 34.5823 10.2344C34.9842 9.54865 35.3858 8.86353 35.7838 8.17842C35.8256 8.10544 35.8599 8.02827 35.8935 7.94148C35.908 7.90414 35.9221 7.86502 35.9366 7.82369L35.9827 7.68916L35.986 7.67995L35.9868 7.6779ZM49.7073 14.0451C49.6102 14.1908 49.53 14.3305 49.4558 14.4596C49.3164 14.7018 49.1985 14.9072 49.0299 15.0466C47.8282 16.0091 46.8586 17.2299 46.1929 18.6183C45.8494 19.3265 45.2612 19.4997 44.6327 19.1882C44.0041 18.8767 43.7946 18.2775 44.0878 17.6028C44.8591 15.84 46.0044 14.358 47.5884 13.2726C47.6942 13.208 47.8069 13.1558 47.9239 13.1169C48.0153 13.0865 48.1095 13.0641 48.2049 13.0501C48.4235 13.0182 48.6461 13.0307 48.8594 13.0868C49.0864 13.1577 49.2556 13.4065 49.4392 13.6761C49.5232 13.7998 49.6102 13.9278 49.7073 14.0451ZM42.7137 28.7928C42.4679 28.526 42.12 28.3598 41.9803 28.2662C40.7595 28.276 40.2539 29.1727 40.7595 30.0429C41.666 31.5905 42.8684 32.9445 44.2976 34.0281C44.873 34.4709 45.5995 34.4317 46.0003 33.9736C46.4682 33.4358 46.3776 32.8534 45.8189 32.2499C45.2926 31.6798 44.7781 31.0991 44.2635 30.5185L44.2464 30.4987C43.7392 29.9265 43.232 29.3546 42.7137 28.7928ZM12.4708 28.1321C12.5169 28.9143 12.0894 29.4702 11.4428 29.5163C10.842 29.561 10.2749 29.107 10.1856 28.3681C9.99276 26.7608 9.83834 25.1489 9.72185 23.5323C9.66592 22.7515 10.2358 22.148 10.8909 22.1452C11.5462 22.1424 12.0405 22.7249 12.0951 23.5002C12.1726 24.5993 12.2656 25.6977 12.3589 26.7959L12.4238 27.5666L12.4708 28.1321ZM29.5568 16.1068C29.2927 17.3276 29.0862 18.561 28.8584 19.7888L28.9672 19.8042V20.5026C28.977 21.1312 29.2886 21.5069 29.9199 21.581C30.5695 21.6578 31.0723 21.3742 31.177 20.7568C31.4201 19.3199 31.6245 17.8766 31.7903 16.4267C31.8266 16.1339 31.7472 15.8385 31.5685 15.6035C31.3901 15.3686 31.1268 15.2128 30.8349 15.1695C30.2915 15.0731 29.6965 15.4684 29.5568 16.1068ZM42.7641 7.49344L42.6727 7.64677C42.6095 7.75323 42.5497 7.85377 42.4886 7.94789C42.413 8.06472 42.3353 8.17167 42.2458 8.26784C41.6751 8.88079 41.0899 9.47976 40.5049 10.0786L40.4935 10.0906L40.1661 10.426L39.7817 10.8212C39.2969 11.3227 38.6544 11.4107 38.1571 11.0419C37.6221 10.6424 37.4712 9.94958 37.9631 9.39225C38.894 8.33103 39.8843 7.32365 40.93 6.37513C41.1673 6.16001 41.7888 6.17955 42.1312 6.32763C42.3658 6.42915 42.517 6.66926 42.6757 6.92138L42.679 6.92598C42.7508 7.04009 42.8239 7.15648 42.9076 7.26349C42.8563 7.34258 42.8089 7.41927 42.7641 7.49344ZM39.9293 33.4489L39.926 33.4472C39.8128 33.3863 39.6914 33.321 39.5624 33.2444C39.4431 33.3366 39.31 33.4179 39.182 33.4962C38.9218 33.6551 38.6825 33.8012 38.6236 33.9987C38.5063 34.401 38.5398 35.0198 38.7856 35.3257C39.3877 36.0786 40.1211 36.7379 40.8531 37.3735C41.5081 37.9461 42.1814 37.9015 42.6255 37.3427C43.0181 36.8594 42.9104 36.1261 42.3699 35.6023C42.1866 35.4251 42.0043 35.2465 41.8221 35.0678C41.3924 34.6464 40.9627 34.2249 40.5164 33.8227C40.3552 33.6774 40.1585 33.5718 39.9293 33.4489ZM28.9828 24.6763C28.9686 23.5183 29.2801 23.0686 29.9311 22.9778C30.6393 22.8786 31.1099 23.2278 31.275 24.0477C31.4286 24.8169 31.5486 25.5922 31.6354 26.3734C31.7219 27.1571 31.332 27.7242 30.6909 27.8499C30.0959 27.9658 29.5008 27.5161 29.3361 26.7478C29.2616 26.4012 29.1988 26.0522 29.1454 25.7291C29.0993 25.4498 29.0602 25.1899 29.027 24.9675L29.0229 24.9419L29.0221 24.9357L28.9828 24.6763ZM9.89236 17.7919C9.86754 18.0285 9.84244 18.2651 9.81406 18.5009L9.84626 18.5037V18.7133C9.85744 19.4913 10.2443 19.983 10.8881 20.0403C11.4903 20.0947 12.0113 19.7036 12.1243 18.9856C12.252 18.1397 12.3308 17.2872 12.3605 16.4322C12.3897 15.7366 11.9303 15.2226 11.3296 15.1597C10.7834 15.1039 10.226 15.5117 10.106 16.1641C10.0075 16.7008 9.94993 17.2464 9.89236 17.7919ZM40.0218 23.7851C40.5303 23.7628 40.9101 24.01 41.0721 24.5492L41.1709 24.8733L41.175 24.8858C41.3368 25.4161 41.4985 25.9471 41.6197 26.4866C41.7594 27.0928 41.4522 27.5035 40.9005 27.7437C40.311 28.0064 39.7689 27.8373 39.537 27.3009C39.2107 26.5376 38.9802 25.7367 38.8511 24.9166C38.748 24.267 39.3037 23.7935 40.0218 23.7851ZM232.14 10.12H228.148L228.182 10.5153L228.197 10.6941L228.208 10.8282L229.699 10.8952V15.1556H230.651V10.8505H232.187C232.169 10.5614 232.155 10.3491 232.14 10.12ZM44.5882 20.1548C45.4849 20.1548 46.0003 20.9929 45.8145 22.1467C45.6901 22.9135 45.2558 23.3186 44.5797 23.2893C43.8813 23.2571 43.5308 22.8591 43.4945 22.0489C43.4846 21.8916 43.48 21.734 43.4806 21.5765C43.4808 21.434 43.4855 21.2916 43.4945 21.1494C43.546 20.497 43.9315 20.159 44.5882 20.1548ZM52.8363 21.6633C52.779 22.69 53.1492 23.2362 53.9327 23.2823C54.0953 23.2937 54.2582 23.2719 54.4121 23.2182C54.5657 23.1645 54.707 23.08 54.8268 22.97C54.9468 22.8599 55.0431 22.7265 55.1099 22.578C55.1768 22.4295 55.2125 22.269 55.215 22.1062C55.2515 21.2625 54.7095 20.518 54.011 20.4705C53.3615 20.4272 52.8769 20.9189 52.8363 21.6633Z" fill="#6E80A3"/>
</svg>
