<svg width="148" height="41" viewBox="0 0 148 41" fill="none" xmlns="http://www.w3.org/2000/svg">
<path d="M145.897 10.9351C146.225 10.9374 146.547 11.0219 146.833 11.1808C147.134 11.3418 147.381 11.5865 147.545 11.8852C147.711 12.1767 147.799 12.506 147.8 12.8413C147.799 13.1735 147.713 13.4998 147.548 13.7885C147.386 14.0863 147.141 14.3313 146.844 14.4945C146.555 14.6584 146.228 14.7446 145.896 14.7446C145.564 14.7446 145.237 14.6584 144.948 14.4945C144.65 14.331 144.406 14.0861 144.242 13.7885C144.076 13.499 143.988 13.1708 143.988 12.8369C143.988 12.5029 144.076 12.1748 144.242 11.8852C144.406 11.5861 144.654 11.3413 144.956 11.1808C145.243 11.0208 145.567 10.9362 145.897 10.9351ZM145.897 11.2508C145.624 11.253 145.357 11.3237 145.119 11.4563C144.868 11.5908 144.661 11.7951 144.524 12.0446C144.385 12.2857 144.311 12.5592 144.311 12.8376C144.311 13.116 144.385 13.3895 144.524 13.6307C144.662 13.8797 144.869 14.0838 145.119 14.2189C145.36 14.3575 145.632 14.4304 145.909 14.4304C146.187 14.4304 146.459 14.3575 146.699 14.2189C146.951 14.0847 147.158 13.8803 147.295 13.6307C147.432 13.3901 147.505 13.1182 147.505 12.8413C147.504 12.5618 147.431 12.2874 147.292 12.0446C147.155 11.7951 146.948 11.5908 146.696 11.4563C146.452 11.3206 146.176 11.2499 145.897 11.2508ZM145.061 13.8987V11.8435H145.764C145.94 11.8354 146.117 11.855 146.287 11.9016C146.393 11.9367 146.483 12.0065 146.545 12.0997C146.607 12.1867 146.64 12.2907 146.641 12.3975C146.642 12.4703 146.628 12.5424 146.601 12.6097C146.573 12.677 146.532 12.738 146.481 12.7892C146.368 12.9036 146.215 12.9707 146.055 12.9769C146.119 13.0012 146.179 13.0382 146.229 13.0856C146.343 13.2095 146.443 13.3459 146.527 13.4922L146.777 13.8928H146.372L146.19 13.5696C146.105 13.3912 145.988 13.2297 145.845 13.093C145.767 13.0404 145.673 13.0152 145.58 13.0216H145.386V13.8987H145.061ZM145.392 12.7445H145.792C145.929 12.7582 146.067 12.7285 146.186 12.6597C146.219 12.6323 146.246 12.5975 146.265 12.558C146.283 12.5184 146.291 12.4752 146.29 12.4318C146.291 12.3736 146.273 12.3167 146.239 12.2695C146.204 12.2204 146.156 12.183 146.099 12.1622C145.991 12.1323 145.879 12.1202 145.767 12.1265H145.392V12.7445Z" fill="#6E80A3"/>
<path d="M24.3048 11.9959C27.4633 11.9959 30.0237 9.43543 30.0237 6.27698C30.0237 3.11853 27.4633 0.558105 24.3048 0.558105C21.1464 0.558105 18.5859 3.11853 18.5859 6.27698C18.5859 9.43543 21.1464 11.9959 24.3048 11.9959Z" fill="#6E80A3"/>
<path d="M32.4025 37.156C35.5609 37.156 38.1213 34.5956 38.1213 31.4371C38.1213 28.2787 35.5609 25.7183 32.4025 25.7183C29.244 25.7183 26.6836 28.2787 26.6836 31.4371C26.6836 34.5956 29.244 37.156 32.4025 37.156Z" fill="#6E80A3"/>
<path d="M6.672 31.8201C9.83045 31.8201 12.3909 29.2596 12.3909 26.1012C12.3909 22.9427 9.83045 20.3823 6.672 20.3823C3.51355 20.3823 0.953125 22.9427 0.953125 26.1012C0.953125 29.2596 3.51355 31.8201 6.672 31.8201Z" fill="#6E80A3"/>
<path d="M7.43211 18.2851C9.4851 18.2851 11.1494 16.6208 11.1494 14.5679C11.1494 12.5149 9.4851 10.8506 7.43211 10.8506C5.37912 10.8506 3.71484 12.5149 3.71484 14.5679C3.71484 16.6208 5.37912 18.2851 7.43211 18.2851Z" fill="#6E80A3"/>
<path d="M34.0259 16.7617C36.0789 16.7617 37.7431 15.0974 37.7431 13.0444C37.7431 10.9914 36.0789 9.32715 34.0259 9.32715C31.9729 9.32715 30.3086 10.9914 30.3086 13.0444C30.3086 15.0974 31.9729 16.7617 34.0259 16.7617Z" fill="#6E80A3"/>
<path d="M21.8266 40.0151C23.8796 40.0151 25.5439 38.3508 25.5439 36.2978C25.5439 34.2448 23.8796 32.5806 21.8266 32.5806C19.7737 32.5806 18.1094 34.2448 18.1094 36.2978C18.1094 38.3508 19.7737 40.0151 21.8266 40.0151Z" fill="#6E80A3"/>
<path d="M13.0579 36.7749C14.4792 36.7749 15.6314 35.6227 15.6314 34.2014C15.6314 32.7801 14.4792 31.6279 13.0579 31.6279C11.6366 31.6279 10.4844 32.7801 10.4844 34.2014C10.4844 35.6227 11.6366 36.7749 13.0579 36.7749Z" fill="#6E80A3"/>
<path d="M36.4993 24.0044C37.9206 24.0044 39.0728 22.8522 39.0728 21.4309C39.0728 20.0096 37.9206 18.8574 36.4993 18.8574C35.078 18.8574 33.9258 20.0096 33.9258 21.4309C33.9258 22.8522 35.078 24.0044 36.4993 24.0044Z" fill="#6E80A3"/>
<path d="M13.6321 10.6616C15.0534 10.6616 16.2056 9.50944 16.2056 8.08814C16.2056 6.66684 15.0534 5.51465 13.6321 5.51465C12.2108 5.51465 11.0586 6.66684 11.0586 8.08814C11.0586 9.50944 12.2108 10.6616 13.6321 10.6616Z" fill="#6E80A3"/>
<path d="M56.8711 40.5583V11.6482H59.9614V15.3014C60.6941 13.8995 61.6621 12.8233 62.8655 12.0727C64.071 11.3215 65.4663 10.9309 66.8866 10.9468C69.6239 10.9468 71.8226 11.9029 73.4826 13.8151C75.1427 15.7274 75.9722 18.2626 75.9712 21.4209C75.9712 24.6358 75.1591 27.1889 73.5348 29.0803C71.9104 30.9717 69.7371 31.9184 67.0146 31.9204C65.4509 31.9204 64.0887 31.5556 62.928 30.8258C61.7674 30.096 60.8202 29.0089 60.0865 27.5643V40.5583H56.8711ZM59.9986 21.415C59.9986 23.5993 60.5864 25.3487 61.7619 26.6632C62.9375 27.9778 64.4948 28.638 66.4338 28.644C68.3262 28.644 69.8155 28.0418 70.9017 26.8375C71.9879 25.6331 72.5305 23.9617 72.5295 21.823C72.5295 19.4293 71.9869 17.5527 70.9017 16.1935C69.8165 14.8343 68.3059 14.1542 66.3698 14.1532C64.392 14.1532 62.8362 14.7986 61.7024 16.0893C60.5685 17.38 60.0021 19.1572 60.0031 21.4209L59.9986 21.415Z" fill="#6E80A3"/>
<path d="M96.9164 11.6485V31.0882H93.7636V27.5616C93.003 28.9774 92.0315 30.0576 90.849 30.8023C89.6612 31.5479 88.2839 31.9362 86.8815 31.9207C84.1571 31.9207 81.9619 30.9611 80.2959 29.0419C78.6299 27.1227 77.7969 24.5825 77.7969 21.4212C77.7969 18.2203 78.6061 15.6741 80.2244 13.7827C81.8428 11.8913 84.0067 10.9481 86.7162 10.953C88.3048 10.953 89.6839 11.3179 90.8535 12.0477C92.0231 12.7774 92.9663 13.8641 93.6831 15.3077V11.6485H96.9164ZM93.7636 21.5493C93.7636 19.3541 93.1793 17.5868 92.0107 16.2475C90.8421 14.9081 89.3175 14.2389 87.437 14.2399C85.4881 14.2399 83.967 14.856 82.8739 16.0881C81.7807 17.3202 81.2347 19.0414 81.2357 21.2515C81.2357 23.6026 81.7852 25.4155 82.8843 26.6904C83.9834 27.9652 85.5427 28.6026 87.5622 28.6026C89.4982 28.6026 91.0158 27.9831 92.1149 26.744C93.214 25.5049 93.7636 23.7733 93.7636 21.5493Z" fill="#6E80A3"/>
<path d="M119.173 11.6481V30.7482C119.173 32.8581 119.035 34.3598 118.759 35.2533C118.483 36.1431 118.016 36.9619 117.391 37.6526C116.501 38.6338 115.387 39.3849 114.144 39.8418C112.865 40.3194 111.396 40.5582 109.737 40.5582C106.858 40.5582 104.614 39.8855 103.006 38.5402C101.397 37.1949 100.557 35.2896 100.486 32.8243H104.136V33.079C104.136 34.5385 104.627 35.6649 105.609 36.4582C106.591 37.2515 107.981 37.6486 109.779 37.6496C111.078 37.6496 112.188 37.4337 113.109 37.0018C113.996 36.5989 114.732 35.9259 115.213 35.0791C115.516 34.563 115.726 33.998 115.834 33.4096C115.959 32.7722 116.021 31.8587 116.02 30.6693V27.3929C115.288 28.7829 114.327 29.8487 113.139 30.5904C111.938 31.3368 110.549 31.7239 109.135 31.7058C106.41 31.7058 104.215 30.7567 102.55 28.8583C100.885 26.96 100.052 24.4386 100.051 21.2942C100.051 18.1171 100.859 15.5997 102.477 13.742C104.094 11.8844 106.258 10.9531 108.969 10.9481C110.545 10.9481 111.928 11.313 113.118 12.0427C114.307 12.7725 115.247 13.8453 115.939 15.2611V11.6481H119.173ZM116.02 21.4208C116.02 19.2365 115.44 17.4801 114.279 16.1517C113.119 14.8233 111.591 14.1575 109.695 14.1546C107.745 14.1546 106.224 14.7706 105.132 16.0028C104.04 17.2349 103.494 18.956 103.494 21.1661C103.494 23.5182 104.044 25.3312 105.143 26.605C106.242 27.8789 107.802 28.5163 109.822 28.5173C111.758 28.5173 113.276 27.8908 114.375 26.6378C115.474 25.3848 116.022 23.6458 116.02 21.4208Z" fill="#6E80A3"/>
<path d="M141.509 11.6485V31.0882H138.356V27.5616C137.597 28.9784 136.624 30.0586 135.439 30.8023C134.251 31.5479 132.874 31.9362 131.471 31.9207C128.746 31.9207 126.551 30.9611 124.886 29.0419C123.221 27.1227 122.388 24.5825 122.387 21.4212C122.387 18.2203 123.195 15.6741 124.813 13.7827C126.43 11.8913 128.594 10.9481 131.305 10.953C132.893 10.953 134.273 11.3179 135.443 12.0477C136.614 12.7774 137.557 13.8641 138.273 15.3077V11.6485H141.509ZM138.356 21.5493C138.356 19.3541 137.773 17.5868 136.605 16.2475C135.437 14.9081 133.913 14.2389 132.031 14.2399C130.081 14.2399 128.56 14.856 127.468 16.0881C126.376 17.3202 125.83 19.0414 125.83 21.2515C125.83 23.6026 126.38 25.4155 127.479 26.6904C128.578 27.9652 130.139 28.6026 132.162 28.6026C134.098 28.6026 135.616 27.9831 136.715 26.744C137.814 25.5049 138.361 23.7733 138.356 21.5493Z" fill="#6E80A3"/>
</svg>
