<svg width="107" height="37" viewBox="0 0 107 37" fill="none" xmlns="http://www.w3.org/2000/svg">
<path d="M106.111 36.459H0.015625V31.1598C0.378952 31.1362 0.751362 31.0944 1.12922 31.0944C35.7531 31.0944 70.3775 31.0872 105.003 31.0726C105.864 31.0726 106.172 31.2906 106.129 32.1808C106.06 33.585 106.111 35.0002 106.111 36.459Z" fill="#6E80A3"/>
<path d="M29.6756 14.0436C29.7846 12.7392 29.8573 11.5384 28.6892 10.8317C27.4066 10.0615 26.0024 10.0706 24.6926 10.7518C24.2184 11.0025 23.9569 11.6601 23.5844 12.1088C23.4173 12.3159 23.2211 12.6538 23.0395 12.6629C21.4136 12.7065 19.7859 12.6883 18.1709 12.6883C17.9184 10.5465 19.2136 8.17765 21.3863 7.18395C24.887 5.58349 28.4839 5.50174 31.9882 7.18395C34.2208 8.24123 35.1292 10.2504 35.3035 12.6302C35.3235 12.9009 35.3272 13.1752 35.3272 13.4459C35.3272 17.3789 35.3272 21.3101 35.3272 25.3249H30.4622C30.3387 24.8235 30.2024 24.2821 30.0462 23.6481C28.2114 24.9888 26.2531 25.7645 24.0767 25.7536C22.9938 25.7579 21.9164 25.598 20.8813 25.2794C18.6105 24.5401 17.3025 22.5545 17.248 20.0584C17.1935 17.6696 18.2944 15.7821 20.5906 14.9719C22.1021 14.4414 23.7534 14.2343 25.3593 14.0635C26.7526 13.9291 28.1823 14.0436 29.6756 14.0436ZM29.6248 17.9421C27.8771 17.9421 26.1277 17.8385 24.3983 17.9784C23.1975 18.0747 22.6507 18.8867 22.7633 19.8695C22.8669 20.7197 23.6517 21.2756 24.7816 21.3119C26.1191 21.3404 27.4374 20.9896 28.5838 20.3C29.8427 19.5843 29.9063 19.4317 29.6248 17.9421Z" fill="#6E80A3"/>
<path d="M69.1704 18.865H74.1989C75.1599 21.2393 77.6378 22.2803 80.023 21.2448C80.4445 21.0631 80.9422 20.4982 80.9586 20.093C80.9749 19.6879 80.5081 19.0903 80.1011 18.9013C79.2618 18.5126 78.3245 18.3309 77.4216 18.0802C75.9955 17.6842 74.5404 17.3754 73.1416 16.8976C71.3141 16.2727 69.9879 15.1028 69.71 13.0609C69.3975 10.7555 70.0951 8.79177 72.1079 7.58915C73.6736 6.69941 75.4168 6.16729 77.2124 6.03098C79.0081 5.89466 80.8116 6.15754 82.4936 6.80073C84.9643 7.75992 86.2613 9.61288 86.5211 12.376C84.8335 12.376 83.184 12.3923 81.5381 12.3506C81.3564 12.3506 81.153 12.0217 81.0331 11.8056C80.1629 10.2487 77.0892 9.72007 75.7648 10.9118C75.0382 11.5694 75.1617 12.4795 76.159 12.812C77.4725 13.248 78.8513 13.4805 80.1865 13.8565C81.3551 14.1535 82.5037 14.5242 83.6254 14.9665C87.9599 16.8068 87.1406 22.0514 84.7154 23.8807C84.1275 24.3552 83.4708 24.7374 82.7679 25.0143C79.4054 26.1969 76.0337 26.1261 72.7565 24.7273C70.3531 23.7118 69.0614 21.4937 69.1704 18.865Z" fill="#6E80A3"/>
<path d="M61.6121 20.7561H66.0338V25.3468H51.4062V20.7688H55.9478V4.96411H52.2909V0.458862H61.6121V20.7561Z" fill="#6E80A3"/>
<path d="M91.3945 6.41931C92.8115 6.41931 94.1431 6.44293 95.4711 6.4066C95.9997 6.39206 96.2377 6.55193 96.2994 7.08783C96.3558 7.58741 96.5065 8.07427 96.6628 8.78094C99.3623 5.93246 102.734 6.40296 106.084 6.45383V11.5767C104.62 11.5767 103.148 11.5313 101.682 11.5895C100.249 11.6458 98.8573 11.9128 97.6855 12.8611C97.4321 13.0491 97.2287 13.2966 97.0934 13.5817C96.9582 13.8668 96.8951 14.1808 96.9098 14.4961C96.9443 17.766 96.9262 21.036 96.9262 24.3059V25.3468H91.3945V6.41931Z" fill="#6E80A3"/>
<path d="M14.6888 11.5823C13.1464 11.5823 11.6659 11.5423 10.1908 11.595C8.84828 11.6422 7.54575 11.9075 6.42852 12.7413C5.81632 13.1973 5.48569 13.7277 5.50022 14.5579C5.55109 17.8279 5.52021 21.0978 5.51839 24.3678V25.3469H-0.0078125V6.42123C1.44549 6.42123 2.88245 6.40307 4.32304 6.44303C4.49381 6.44303 4.7445 6.73006 4.80627 6.92989C4.97158 7.47488 5.05696 8.03985 5.20411 8.74653C6.56295 7.56026 7.96539 6.63741 9.67303 6.5266C11.3207 6.41942 12.9793 6.50298 14.6888 6.50298V11.5823Z" fill="#6E80A3"/>
<path d="M40.7695 6.46655H46.2449V25.3468H40.7695V6.46655Z" fill="#6E80A3"/>
</svg>
