<svg width="118" height="38" viewBox="0 0 118 38" fill="none" xmlns="http://www.w3.org/2000/svg">
<path d="M117.872 29.1327H109.52V37.4856H117.872V29.1327Z" fill="#6E80A3"/>
<path d="M12.8422 37.5582C5.43352 37.5582 0.494398 33.4181 0.0585938 28.1158H8.41152C8.62942 30.0769 10.3726 31.3117 12.6969 31.3117C14.8759 31.3117 16.0381 30.2948 16.0381 29.06C16.0381 24.6294 0.930203 27.8253 0.930203 17.6565C0.930203 12.9353 4.92508 9.08566 12.1885 9.08566C19.3066 9.08566 23.3015 13.0805 23.8826 18.5281H16.0381C15.8202 16.6396 14.3675 15.4048 11.9706 15.4048C10.0095 15.4048 8.91995 16.2038 8.91995 17.5112C8.91995 21.9419 23.8826 18.8186 24.0278 29.1327C24.0278 33.9265 19.7424 37.5582 12.8422 37.5582Z" fill="#6E80A3"/>
<path d="M64.1935 0.4422H55.6953V37.195H64.1935V0.4422Z" fill="#6E80A3"/>
<path d="M98.7713 23.6125C98.626 26.6631 96.0838 29.06 92.9605 29.06C89.7646 29.06 87.1498 26.4452 87.1498 23.2493C87.1498 20.0534 89.7646 17.4386 92.9605 17.4386C95.9385 17.4386 98.4081 19.6902 98.6986 22.523C98.6986 22.7409 98.7713 22.9588 98.7713 23.1767C98.7713 23.3946 98.7713 23.5398 98.7713 23.6125ZM98.7713 0.4422V10.3204C97.028 9.52146 95.0669 9.08566 93.0332 9.08566C85.1887 9.08566 78.7969 15.4775 78.7969 23.3219C78.7969 31.1664 85.1887 37.5582 93.0332 37.5582C100.805 37.5582 107.052 31.3843 107.269 23.6851C107.269 23.5398 107.269 23.4672 107.269 23.3219V0.4422H98.7713Z" fill="#6E80A3"/>
<path d="M76.4669 12.2815H67.9688V37.195H76.4669V12.2815Z" fill="#6E80A3"/>
<path d="M76.3217 0.4422H67.9688V9.37619H76.3217V0.4422Z" fill="#6E80A3"/>
<path d="M39.1347 29.1327C35.9388 29.1327 33.324 26.5178 33.324 23.3219C33.324 20.126 35.9388 17.5112 39.1347 17.5112C42.3306 17.5112 44.9454 20.126 44.9454 23.3219C44.9454 26.5178 42.3306 29.1327 39.1347 29.1327ZM39.1347 9.08566C31.2902 9.08566 24.8984 15.4775 24.8984 23.3219C24.8984 31.1664 31.2902 37.5582 39.1347 37.5582C46.9792 37.5582 53.371 31.1664 53.371 23.3219C53.371 15.4048 47.0518 9.08566 39.1347 9.08566Z" fill="#6E80A3"/>
</svg>
