<svg width="136" height="31" viewBox="0 0 136 31" fill="none" xmlns="http://www.w3.org/2000/svg">
<path d="M20.0848 2.20876C21.4089 2.20876 22.4774 1.8024 23.1009 1.17886H23.5073L25.0871 9.5231L24.4601 9.67022C22.071 6.0691 19.7555 3.86219 17.6222 3.86219C16.1544 3.86219 15.5624 4.52426 15.5624 5.55416V25.8122C15.5624 27.3921 16.4101 28.5341 18.0635 29.1226V29.7812H7.53342V29.1226C9.28493 28.5341 10.1081 27.3921 10.1081 25.8122V5.55416C10.1081 4.52426 9.48461 3.86219 8.04836 3.86219C5.94654 3.86219 3.60301 6.0691 1.24897 9.67022L0.527344 9.5231L2.18078 1.17886H2.58713C3.28774 1.8024 4.24056 2.20876 5.63827 2.20876H20.0848Z" fill="#6E80A3"/>
<path d="M28.2615 25.9593V7.42828C28.2615 5.62771 27.4908 4.48923 26.0195 4.04434V3.34373C28.4842 3.04626 30.817 2.06726 32.7559 0.516785L33.3829 0.516785V12.357C33.3829 13.1627 33.3444 14.1086 33.3094 14.5605L33.3829 14.634C35.257 12.7599 39.0088 10.2973 41.7657 10.2973C44.2178 10.2973 45.6611 11.9892 45.6611 14.5254V25.9593C45.6611 27.4306 46.3231 28.6076 47.5001 29.1121V29.7706H38.3607V29.1226C39.7619 28.3134 40.4941 27.4306 40.4941 26.0329V16.3996C40.4941 14.648 39.8705 13.7513 38.5464 13.7162C37.3308 13.6777 35.4217 14.5605 33.3619 15.9231V26.0329C33.3619 27.4341 34.2061 28.3484 35.4952 29.1226V29.7811H26.2017V29.1226C26.8227 28.8658 27.3516 28.4274 27.7192 27.8648C28.0868 27.3022 28.2758 26.6417 28.2615 25.9698" fill="#6E80A3"/>
<path d="M61.9493 25.9594H61.8757C60.0401 27.8405 56.5091 30.2926 53.7136 30.2926C51.216 30.2926 49.8918 28.6042 49.8918 26.089V17.1352C49.8918 15.2961 49.4119 14.0841 47.832 13.5691V12.9071C50.2414 12.6173 52.5147 11.634 54.3757 10.0766H54.9292V24.1938C54.9292 26.0329 55.5527 26.9507 56.9504 26.9963C58.1625 27.0698 59.7809 26.1485 61.8757 24.7158V17.3594C61.8757 15.4117 61.4343 14.014 59.7459 13.5726V12.9071C62.1887 12.5773 64.4988 11.6001 66.4367 10.0766H67.0252V24.3795C67.0252 26.4813 67.5751 27.4657 69.127 27.9456V28.6077C66.8489 28.8464 64.6324 29.4931 62.5833 30.5168H61.8827V28.2398C61.8827 27.3921 61.9563 26.4358 61.9563 25.9594" fill="#6E80A3"/>
<path d="M72.3671 25.8122V16.9811C72.3671 14.9598 71.7786 14.0035 70.1602 13.5621V12.9071C72.6081 12.5924 74.9233 11.6135 76.8545 10.0766H77.5165V12.1784C77.5256 12.9402 77.4881 13.7017 77.4044 14.4589L77.5165 14.4939C79.3521 12.6198 83.0303 10.2903 85.8608 10.2903C88.397 10.2903 89.7596 11.9787 89.7596 14.5184V25.8122C89.7596 27.4306 90.4602 28.6147 91.6688 29.1191V29.7812H82.5609V29.1191C83.9236 28.3134 84.6943 27.4306 84.6943 25.8122V16.3996C84.6943 14.6481 84.1057 13.7513 82.708 13.7163C81.4224 13.6777 79.6569 14.4169 77.527 15.776V25.8122C77.527 27.4306 78.3713 28.3134 79.6569 29.1191V29.7812H70.1602V29.1191C70.828 28.8685 71.4004 28.4146 71.7964 27.8212C72.1923 27.2279 72.392 26.5251 72.3671 25.8122Z" fill="#6E80A3"/>
<path d="M101.112 30.3346C96.6631 30.3346 92.1406 27.1363 92.1406 20.8764C92.1406 15.0684 96.1866 10.2902 101.665 10.2902C106.076 10.2902 109.421 13.4149 109.421 18.0459V19.0478H96.8837C96.9958 24.4145 99.8263 26.9156 103.354 26.9156C104.406 26.9173 105.442 26.6556 106.367 26.1545C107.292 25.6534 108.077 24.9288 108.65 24.0466L109.239 24.3969C108.135 28.1837 104.685 30.3521 101.112 30.3521M96.9573 17.3909H104.163C104.163 14.1926 102.877 12.1363 100.783 12.1363C98.9435 12.1363 97.2796 13.7547 96.9573 17.3909Z" fill="#6E80A3"/>
<path d="M118.172 30.2925C115.555 30.2567 112.958 29.8353 110.465 29.0419L112.892 23.4371H113.323C114.024 26.8946 116.851 28.4394 119.608 28.4394C121.888 28.4394 123.251 27.3885 123.251 25.9383C123.251 24.2813 121.447 23.4021 119.205 22.6664C115.86 21.5244 111.814 20.3124 111.814 16.417C111.814 12.914 115.05 10.2762 119.976 10.2762C121.941 10.2769 123.896 10.5492 125.787 11.0854L124.053 16.0702H123.542C123.311 14.9183 122.684 13.8834 121.771 13.1446C120.857 12.4057 119.714 12.0094 118.539 12.0242C116.665 12.0242 115.488 12.9805 115.488 14.2661C115.488 16.2524 118.245 17.023 121.002 18.0179C123.98 19.0478 126.922 20.47 126.922 23.8645C126.922 27.6477 123.282 30.296 118.165 30.296" fill="#6E80A3"/>
<path d="M128.66 26.7686C128.658 26.31 128.747 25.8556 128.923 25.432C129.099 25.0084 129.357 24.6243 129.684 24.3022C130.01 23.98 130.398 23.7264 130.823 23.5562C131.249 23.386 131.705 23.3027 132.163 23.3111C132.612 23.3111 133.057 23.3995 133.472 23.5713C133.886 23.7431 134.263 23.995 134.581 24.3125C134.898 24.6299 135.15 25.0068 135.322 25.4216C135.494 25.8365 135.582 26.281 135.582 26.73C135.582 27.179 135.494 27.6236 135.322 28.0384C135.15 28.4532 134.898 28.8301 134.581 29.1476C134.263 29.4651 133.886 29.7169 133.472 29.8887C133.057 30.0606 132.612 30.149 132.163 30.149C131.711 30.1597 131.26 30.0804 130.838 29.9159C130.417 29.7513 130.032 29.5047 129.706 29.1902C129.38 28.8758 129.12 28.4999 128.94 28.0842C128.761 27.6685 128.666 27.2213 128.66 26.7686Z" fill="#6E80A3"/>
</svg>
