<svg width="162" height="31" viewBox="0 0 162 31" fill="none" xmlns="http://www.w3.org/2000/svg">
<path d="M142.281 8.45264C143.472 8.45264 144.662 8.45264 145.852 8.45264C146.582 8.45264 146.804 8.69508 146.803 9.41071C146.802 10.1264 146.584 10.3571 145.839 10.36C144.114 10.36 142.389 10.3761 140.665 10.36C140.118 10.36 139.863 10.5061 139.89 11.102C139.93 11.9476 139.93 12.7961 139.89 13.6403C139.861 14.261 140.118 14.4333 140.705 14.4202C142.065 14.388 143.426 14.407 144.788 14.4114C145.623 14.4114 145.781 14.5721 145.781 15.3753C145.781 16.1421 145.602 16.3159 144.758 16.3203C143.397 16.3203 142.036 16.3436 140.669 16.3115C140.061 16.2969 139.851 16.5116 139.879 17.1133C139.921 18.0305 139.912 18.9521 139.879 19.8692C139.86 20.4111 140.077 20.5995 140.609 20.5995C142.309 20.5834 144.011 20.5893 145.711 20.5995C146.599 20.5995 146.839 20.8784 146.774 21.7401C146.739 22.2016 146.514 22.4704 146.044 22.4704C143.54 22.4772 141.038 22.4772 138.537 22.4704C137.971 22.4704 137.717 22.1622 137.719 21.5941C137.726 17.531 137.726 13.4689 137.719 9.40779C137.719 8.73013 138.034 8.4541 138.699 8.46432C139.901 8.46432 141.097 8.45264 142.281 8.45264Z" fill="#6E80A3"/>
<path d="M67.3915 13.449C67.3915 12.117 67.3915 10.7865 67.3915 9.45602C67.3915 8.58849 67.5814 8.42053 68.4927 8.43368C69.3325 8.43368 69.4771 8.58995 69.4785 9.48669C69.4785 11.8571 69.4698 14.2289 69.4785 16.5992C69.4873 18.3139 70.2599 19.5523 71.6108 20.0752C73.8994 20.9632 76.2596 19.3669 76.2844 16.8928C76.3034 14.4494 76.2844 12.006 76.2844 9.56263C76.2844 8.66297 76.5166 8.44098 77.4002 8.45704C78.1436 8.47019 78.3656 8.69948 78.3714 9.47938C78.389 11.5357 78.3714 13.5921 78.4284 15.6456C78.4547 16.6679 78.4985 17.6698 78.2108 18.6615C77.4499 21.2801 74.875 22.8969 72.0665 22.5274C69.4654 22.1798 67.412 19.8605 67.393 17.2243C67.3798 15.9654 67.3915 14.7065 67.3915 13.449Z" fill="#6E80A3"/>
<path d="M84.4604 15.4526C84.4604 13.4445 84.4604 11.4363 84.4604 9.42666C84.4604 8.63216 84.6473 8.45544 85.4594 8.45398C87.8185 8.45398 90.1772 8.45398 92.5354 8.45398C93.2773 8.45398 93.5183 8.69204 93.5271 9.38285C93.5373 10.1131 93.2919 10.3599 92.5047 10.3614C90.8033 10.3614 89.1003 10.3774 87.393 10.3614C86.8176 10.3614 86.5416 10.5264 86.5708 11.15C86.6102 11.9957 86.5956 12.8442 86.5708 13.6913C86.5576 14.22 86.7738 14.4215 87.301 14.4215C88.7104 14.4011 90.1212 14.4098 91.5364 14.4215C92.2842 14.4215 92.5091 14.6479 92.512 15.3562C92.515 16.0646 92.2667 16.3231 91.5569 16.3275C90.1461 16.3391 88.7352 16.3537 87.3215 16.3275C86.7373 16.3143 86.546 16.5348 86.562 17.0913C86.5898 18.0099 86.5869 18.9315 86.562 19.8501C86.5474 20.4007 86.7373 20.6257 87.3244 20.6154C89.0259 20.5848 90.7273 20.5994 92.4361 20.6067C93.2627 20.6067 93.4833 20.817 93.4876 21.5501C93.492 22.2833 93.27 22.479 92.4419 22.479C90.1324 22.479 87.8224 22.479 85.5119 22.479C84.6137 22.479 84.4429 22.3096 84.4414 21.4275C84.4531 19.4295 84.4594 17.4379 84.4604 15.4526Z" fill="#6E80A3"/>
<path d="M127.162 18.8365C127.624 16.7159 126.857 15.0042 125.472 13.4327C124.567 12.4001 123.831 11.223 123 10.1247C122.611 9.61206 122.562 9.19582 123.146 8.78835C123.816 8.32538 124.168 8.32245 124.628 8.92271C125.707 10.3496 126.782 11.7809 127.831 13.2297C128.139 13.6532 128.297 13.6299 128.595 13.2136C129.607 11.7984 130.654 10.4095 131.692 9.01326C132.185 8.3502 132.569 8.29325 133.201 8.76644C133.817 9.22357 133.844 9.49669 133.33 10.2021C132.101 11.8992 130.873 13.6109 129.626 15.2977C129.424 15.5679 129.32 15.8995 129.334 16.2368C129.345 17.9281 129.343 19.6193 129.334 21.3105C129.334 22.2146 129.069 22.5052 128.278 22.5154C127.435 22.5257 127.165 22.235 127.159 21.3018C127.158 20.4752 127.162 19.6587 127.162 18.8365Z" fill="#6E80A3"/>
<path d="M42.6902 16.2998C42.6902 14.6071 42.6742 12.9144 42.699 11.2217C42.7078 10.5893 42.5252 10.2899 41.8227 10.3279C40.9026 10.3776 39.9781 10.3279 39.0551 10.344C38.4256 10.3542 38.2022 10.0519 38.1993 9.44869C38.1963 8.84551 38.3541 8.45264 39.039 8.45264H48.5132C49.15 8.45264 49.3457 8.83236 49.3457 9.39611C49.3457 9.95986 49.1573 10.341 48.5161 10.3396C47.6647 10.3396 46.8147 10.3396 45.9647 10.3396C44.8649 10.3396 44.8649 10.3396 44.8649 11.4043C44.8649 14.7147 44.8649 18.0251 44.8649 21.3356C44.8649 22.2323 44.6517 22.4455 43.8265 22.4528C42.8772 22.4616 42.6917 22.2761 42.6917 21.2991C42.6888 19.6351 42.6883 17.9687 42.6902 16.2998Z" fill="#6E80A3"/>
<path d="M98.4899 15.5097C98.4899 13.5497 98.4899 11.5912 98.4899 9.63268C98.4899 8.58405 99.2523 8.10063 100.21 8.52855C100.676 8.73594 100.679 9.14634 100.679 9.57134C100.673 12.8818 100.673 16.1951 100.679 19.5114C100.679 20.5878 100.679 20.5878 101.779 20.5878C103.067 20.5878 104.355 20.6097 105.642 20.579C106.286 20.5644 106.597 20.7908 106.585 21.4553C106.572 22.2396 106.384 22.463 105.614 22.4645C103.57 22.4703 101.529 22.4703 99.4918 22.4645C98.7178 22.4645 98.4972 22.2425 98.4943 21.4611C98.4841 19.469 98.4899 17.4872 98.4899 15.5097Z" fill="#6E80A3"/>
<path d="M30.4593 14.7077C30.4447 13.1129 30.4593 11.518 30.4681 9.92173C30.4681 9.13161 30.1555 8.50798 29.4618 8.11949C24.9012 5.56365 20.3367 3.01266 15.7683 0.466553H14.5999C14.2275 0.559158 13.8669 0.693905 13.525 0.868186C9.46777 3.20496 5.37403 5.47748 1.30658 7.79527C0.79395 8.08736 0.414224 8.43934 0.304688 9.03376V9.764C0.488709 10.3584 0.937077 10.6899 1.47308 10.982C2.31431 11.445 3.14387 11.9328 4.03331 12.4659C3.06792 13.0939 2.14928 13.6343 1.23063 14.1557C0.754517 14.4229 0.420066 14.7472 0.304688 15.2773V21.5209C0.662506 22.4425 1.33725 23.0267 2.20332 23.4999C6.20066 25.6818 10.1761 27.9032 14.1515 30.1261C14.8161 30.497 15.4426 30.6153 16.1407 30.2239C20.4696 27.7898 24.8024 25.3625 29.139 22.942C30.4535 22.2117 30.4622 21.4566 29.2004 20.649C28.1561 19.9801 27.1236 19.2893 26.0063 18.5576C27.1747 17.8974 28.2292 17.2943 29.2909 16.7159C30.0986 16.2763 30.4666 15.6205 30.4593 14.7077ZM16.1845 2.75659L27.6596 9.32877C26.405 10.0751 25.2352 10.7747 24.0609 11.4669C23.8886 11.5692 23.7352 11.4567 23.5877 11.3691C21.2334 9.9709 18.8762 8.57614 16.5161 7.18478C16.243 7.02413 16.1743 6.82696 16.1758 6.53633C16.1918 5.32851 16.1845 4.11776 16.1845 2.75659ZM14.8657 8.64527C15.0541 8.53865 15.2148 8.4335 15.4587 8.57955C17.6494 9.89398 19.8635 11.1938 22.1769 12.5608C20.3688 13.5832 18.5973 14.4317 16.998 15.5315C15.6836 16.4413 14.6613 16.3201 13.3819 15.4716C11.7388 14.3777 9.94973 13.5014 8.12412 12.4732C10.4478 11.1573 12.6575 9.90421 14.8657 8.64527ZM2.57428 9.37551L14.2859 2.7712C14.2859 4.13237 14.2757 5.33873 14.2859 6.54509C14.2976 6.67485 14.2678 6.80496 14.2009 6.91674C14.134 7.02852 14.0334 7.11622 13.9135 7.16726C11.4277 8.53038 8.94492 9.89836 6.46501 11.2712C6.35874 11.348 6.23098 11.3893 6.09989 11.3893C5.9688 11.3893 5.84104 11.348 5.73477 11.2712C4.7431 10.6432 3.71638 10.0473 2.57428 9.37551ZM2.04266 20.6972V17.1847L5.20023 18.9373L2.04266 20.6972ZM27.7209 21.851L18.2818 27.0211C17.4055 27.4987 16.5292 27.9689 15.6675 28.4524C15.4017 28.5984 15.1812 28.6714 14.8672 28.4976C11.0758 26.3955 7.2785 24.3022 3.4754 22.2176C3.38614 22.156 3.303 22.0861 3.22712 22.0087C4.37214 21.3646 5.49671 20.7483 6.60376 20.0998C6.93967 19.9027 7.15728 20.0999 7.3968 20.2313C9.70583 21.5121 12.0192 22.7842 14.3078 24.1001C14.9548 24.4725 15.485 24.4609 16.1276 24.0855C18.5943 22.644 21.0932 21.2551 23.5644 19.8224C24.0025 19.5712 24.3121 19.5697 24.7225 19.8603C25.6675 20.5307 26.6475 21.1441 27.7209 21.851ZM23.8433 17.7368C21.1317 19.244 18.4181 20.7483 15.7026 22.2497C15.4192 22.4074 15.1812 22.5199 14.8424 22.3286C10.8786 20.0843 6.909 17.8478 2.93356 15.6191C2.87642 15.5745 2.82271 15.5257 2.77291 15.473C3.86535 14.8567 4.90668 14.2857 5.92755 13.6825C6.21965 13.5087 6.4139 13.6241 6.6578 13.7584C9.21364 15.1926 11.7826 16.602 14.3253 18.0596C14.9767 18.4334 15.4937 18.4261 16.1393 18.0435C18.5315 16.6137 20.9589 15.2364 23.3526 13.8081C23.744 13.5759 24.02 13.5875 24.3954 13.8271C25.3754 14.4507 26.386 15.0276 27.4858 15.6833C26.2298 16.3961 25.0395 17.0723 23.8433 17.7368ZM28.8002 14.4784L25.85 12.7259C25.612 12.5798 25.6149 12.4542 25.8573 12.3155C26.7161 11.8262 27.5705 11.3326 28.4292 10.8433C28.66 10.7133 28.7987 10.7776 28.7987 11.0521C28.8017 12.1504 28.8002 13.2458 28.8002 14.4784Z" fill="#6E80A3"/>
<path d="M159.236 17.4491C158.975 17.0007 159.004 16.8079 159.514 16.5421C161.322 15.5987 162.175 13.5292 161.655 11.5487C161.179 9.73335 159.464 8.45981 157.474 8.45397C155.941 8.44812 154.409 8.44812 152.879 8.45397C151.973 8.45397 151.74 8.6745 151.738 9.54203C151.738 11.502 151.738 13.462 151.738 15.4219C151.738 17.4301 151.738 19.4383 151.738 21.4479C151.738 22.2336 151.969 22.4513 152.731 22.4586C153.551 22.4586 153.795 22.2468 153.8 21.4494C153.809 20.1919 153.814 18.9329 153.8 17.6755C153.8 17.1862 153.967 16.9642 154.483 16.9905C155.067 17.0197 155.651 17.0153 156.235 16.9905C156.628 16.9744 156.85 17.1205 157.027 17.4754C157.728 18.8789 158.464 20.2664 159.181 21.6626C159.607 22.4951 159.958 22.6499 160.641 22.2935C161.372 21.9138 161.477 21.518 161.025 20.687C160.437 19.5989 159.854 18.5138 159.236 17.4491ZM157.23 15.2423C156.286 15.292 155.331 15.2423 154.392 15.2569C153.968 15.2569 153.841 15.0495 153.844 14.6727C153.844 14.0447 153.844 13.4167 153.844 12.7887C153.844 12.1855 153.844 11.5823 153.844 10.9791C153.844 10.6169 153.99 10.4519 154.36 10.4563C155.354 10.4694 156.35 10.4285 157.344 10.4738C158.535 10.5279 159.476 11.5765 159.491 12.7916C159.514 13.4159 159.289 14.0241 158.866 14.4833C158.442 14.9425 157.854 15.2153 157.23 15.2423Z" fill="#6E80A3"/>
<path d="M60.8734 17.5937C60.5652 17.0723 60.5316 16.8284 61.1523 16.4735C62.9808 15.4263 63.7491 13.4342 63.197 11.5078C62.6449 9.58146 61.015 8.45105 58.852 8.44958C57.3692 8.44958 55.8868 8.44958 54.4049 8.44958C53.5286 8.44958 53.2905 8.68472 53.2891 9.5654C53.2891 11.5234 53.2891 13.4829 53.2891 15.4438C53.2891 17.4272 53.2891 19.4105 53.2891 21.3939C53.2891 22.1854 53.5651 22.4571 54.3245 22.4542C55.084 22.4513 55.363 22.2015 55.3717 21.3997C55.3834 20.2153 55.4024 19.0293 55.363 17.8449C55.3425 17.23 55.509 16.9379 56.1764 17.0051C56.6622 17.0514 57.1512 17.0514 57.6369 17.0051C58.1452 16.9613 58.4314 17.1409 58.6593 17.6039C59.3355 18.9914 60.0569 20.3584 60.7609 21.7327C61.1435 22.479 61.5364 22.6294 62.2053 22.2921C62.9458 21.9182 63.0509 21.5706 62.6216 20.7629C62.0476 19.7012 61.4882 18.6306 60.8734 17.5937ZM58.8374 15.2569C58.3993 15.2496 57.9612 15.2569 57.523 15.2569C55.4272 15.2569 55.4272 15.2569 55.4272 13.1611C55.4272 12.4586 55.4389 11.7576 55.4272 11.0566C55.4185 10.6549 55.5835 10.4811 55.9851 10.4855C57.0075 10.4957 58.0298 10.4548 59.0521 10.5045C60.3286 10.5673 61.3582 11.7488 61.2911 12.9946C61.2592 13.6176 60.9845 14.2032 60.5258 14.6259C60.0671 15.0486 59.4609 15.2746 58.8374 15.2554V15.2569Z" fill="#6E80A3"/>
<path d="M122.387 20.7892C120.523 16.8674 118.653 12.9484 116.778 9.03234C116.631 8.74024 116.51 8.44815 116.129 8.43354C115.748 8.41894 115.584 8.69351 115.446 8.98414L109.694 20.9981C109.443 21.5253 109.45 21.9679 110.068 22.2541C110.785 22.5871 111.216 22.5024 111.529 21.8875C111.859 21.2449 112.176 20.5935 112.463 19.9305C112.609 19.5931 112.805 19.4748 113.176 19.4792C115.097 19.4982 117.016 19.4953 118.936 19.4792C119.303 19.4792 119.506 19.596 119.656 19.9378C119.966 20.6432 120.309 21.3369 120.667 22.0204C120.864 22.3958 121.194 22.5915 121.634 22.4367C122.073 22.2819 122.593 22.1636 122.628 21.4654C122.666 21.2508 122.498 21.0215 122.387 20.7892ZM118.086 17.7441C116.754 17.7441 115.422 17.7441 114.092 17.7441C113.789 17.7441 113.528 17.6638 113.71 17.2753C114.466 15.6688 115.228 14.0622 116.047 12.333C116.881 14.0739 117.639 15.6542 118.397 17.2344C118.559 17.566 118.457 17.7427 118.086 17.7441Z" fill="#6E80A3"/>
</svg>
