<svg width="222" height="31" viewBox="0 0 222 31" fill="none" xmlns="http://www.w3.org/2000/svg">
<path d="M145.92 27.0743C142.29 31.8332 135.88 30.7975 132.717 28.1188C127.641 23.803 127.585 15.1772 132.667 10.8672C136.71 7.43446 142.185 7.79241 145.87 11.7474C145.923 11.6858 146.014 11.63 146.025 11.5625C146.395 8.96599 146.395 8.96305 148.986 8.96305C152.245 8.96305 152.245 8.96305 152.245 12.1728C152.245 17.6915 152.222 23.2103 152.269 28.7261C152.269 29.7178 152.066 30.1784 151.001 30.0288C150.465 29.9921 149.927 29.9921 149.39 30.0288C146.48 30.0024 146.48 30.0024 145.92 27.0743ZM145.201 19.4842C145.201 16.5737 143.147 14.473 140.284 14.4642C137.35 14.4642 135.152 16.6177 135.17 19.4901C135.17 22.2861 137.361 24.4308 140.216 24.4543C143.071 24.4778 145.198 22.3624 145.201 19.4842Z" fill="#6E80A3"/>
<path d="M93.8246 27.1186C89.6232 32.4555 81.3289 30.8946 78.3187 25.3377C76.0625 21.1715 76.1212 16.9525 78.7265 12.977C80.9974 9.51496 84.3773 8.15654 88.4731 8.64651C90.4799 8.88709 91.4481 9.48268 93.7894 11.6743C93.8238 11.6418 93.8543 11.6053 93.8803 11.5658C94.2911 10.7443 93.6632 9.45628 94.5522 9.03085C95.3092 8.66998 96.3713 8.9487 97.3013 8.94577C100.18 8.94577 100.18 8.94577 100.18 11.8181C100.18 17.4366 100.144 23.0551 100.209 28.6736C100.209 29.8061 99.8861 30.1641 98.8123 30.0115C98.3239 29.9776 97.8337 29.9776 97.3453 30.0115C94.3967 29.9998 94.3967 29.9998 93.8246 27.1186ZM88.1738 14.4616C85.325 14.444 83.1128 16.5535 83.0482 19.3525C83.0331 20.0238 83.1537 20.6912 83.4028 21.3148C83.6518 21.9383 84.0242 22.5052 84.4977 22.9813C84.9711 23.4575 85.5358 23.8332 86.1579 24.0858C86.78 24.3385 87.4467 24.4629 88.1181 24.4517C89.4409 24.4591 90.7125 23.9407 91.6531 23.0105C92.5937 22.0804 93.1263 20.8147 93.1337 19.4918C93.1411 18.169 92.6227 16.8974 91.6925 15.9568C90.7624 15.0162 89.4966 14.4837 88.1738 14.4763V14.4616Z" fill="#6E80A3"/>
<path d="M60.4301 11.5833C61.8677 10.5212 63.1381 9.63812 64.6168 9.11001C70.3556 7.05625 75.0558 9.85817 75.4724 15.8904C75.7658 20.3118 75.5546 24.7714 75.5986 29.2134C75.5986 29.9146 75.2788 30.0144 74.7184 30.0085C73.2045 29.9851 71.6906 29.9557 70.1766 30.0085C69.3287 30.0437 69.2348 29.6447 69.2407 28.9523C69.27 26.2677 69.2642 23.5802 69.2407 20.8957C69.2541 19.9675 69.2071 19.0393 69.0999 18.1172C68.8065 15.9608 67.8383 14.7901 66.2334 14.5143C64.1532 14.1564 62.2227 15.0248 61.2252 16.7647C60.6667 17.8014 60.3933 18.9677 60.433 20.1446C60.433 23.0785 60.4007 26.0125 60.433 28.9464C60.4477 29.7591 60.254 30.0643 59.3914 30.0232C57.9773 29.9528 56.5573 29.9674 55.1431 30.0232C54.4037 30.0525 54.1338 29.8706 54.1367 29.0638C54.17 22.6678 54.17 16.2708 54.1367 9.87283C54.1367 9.03372 54.4624 8.91343 55.1666 8.94277C56.2863 9.03669 57.412 9.03669 58.5318 8.94277C59.8345 8.7726 60.2922 9.30365 60.2922 10.5036C60.3175 10.8659 60.3636 11.2263 60.4301 11.5833Z" fill="#6E80A3"/>
<path d="M214.18 21.3708C212.177 21.3708 210.173 21.3708 208.169 21.3708C207.776 21.3708 207.221 21.0979 206.995 21.6465C206.825 22.0808 207.107 22.4974 207.333 22.8759C208.618 25.0177 212.543 25.625 214.626 23.7238C215.759 22.6852 216.792 22.6822 218.053 22.8817C218.485 22.9492 218.933 22.9932 219.362 23.0343C221.474 23.225 221.515 23.3072 220.483 25.2465C218.57 28.8347 214.515 30.821 210.067 30.3281C205.713 29.8528 202.283 26.9365 201.036 22.6441C199.707 18.0671 201.215 13.1616 204.762 10.5239C208.151 8.00369 213.218 7.78657 216.762 10.1337C220.532 12.6276 221.659 16.3918 221.603 20.696C221.603 21.4881 221.102 21.3737 220.62 21.3708H214.18ZM211.068 17.0931C212.191 17.0931 213.315 17.0696 214.436 17.0931C215.199 17.1165 215.436 16.8935 215.049 16.1689C214.201 14.5875 212.743 14.1298 211.114 14.1151C209.486 14.1004 208.01 14.5699 207.139 16.1131C206.816 16.6852 206.796 17.1312 207.699 17.096C208.82 17.0608 209.944 17.096 211.068 17.0931Z" fill="#6E80A3"/>
<path d="M46.2061 27.5002C44.5807 28.7266 42.8643 29.7711 40.8135 30.1994C35.5793 31.2909 31.6684 28.5652 31.3603 23.2313C31.105 18.801 31.2664 14.3502 31.2136 9.90824C31.2136 9.14835 31.4542 8.89016 32.2317 8.92537C33.6458 8.98991 35.0659 8.98405 36.48 8.92537C37.3074 8.89309 37.5509 9.16302 37.5568 10.0021C37.5803 13.4172 37.3602 16.8382 37.6771 20.2475C37.9382 23.0787 38.9416 24.2787 41.0541 24.4665C43.4951 24.6807 45.455 23.2548 46.1151 20.7609C46.5552 19.0798 46.2941 17.3575 46.3322 15.6558C46.3762 13.7517 46.3704 11.8417 46.3322 9.94345C46.3322 9.20703 46.5171 8.89603 47.321 8.9283C48.788 8.98991 50.2549 8.98404 51.7219 8.9283C52.5229 8.89896 52.7106 9.2217 52.7077 9.95225C52.6882 16.2994 52.6882 22.6465 52.7077 28.9936C52.7077 29.8738 52.385 30.0997 51.5928 30.0263C51.006 29.9706 50.4192 30.0263 49.8324 30.0087C48.9053 30.0087 47.896 30.2024 47.0745 29.9002C46.1474 29.554 46.8838 28.2542 46.2061 27.5002Z" fill="#6E80A3"/>
<path d="M190.161 22.9641C191.83 18.5925 193.482 14.3207 195.078 10.0254C195.371 9.21855 195.741 8.88409 196.645 8.92223C198.537 9.00438 200.433 8.94863 202.536 8.94863L199.156 17.017C197.475 21.0189 195.773 25.012 194.133 29.0286C193.822 29.7855 193.429 30.0496 192.619 30.0203C190.859 29.9586 189.099 29.9704 187.338 30.0203C186.655 30.0379 186.297 29.8413 186.021 29.1841C183.295 22.6091 180.52 16.0576 177.762 9.49728C177.721 9.31631 177.701 9.13121 177.703 8.94569C179.819 8.94569 181.902 8.96917 183.985 8.94569C184.765 8.94569 184.8 9.53248 184.976 9.99605C186.485 13.9099 187.963 17.8326 189.468 21.7318C189.615 22.1221 189.621 22.6091 190.161 22.9641Z" fill="#6E80A3"/>
<path d="M163.592 22.4128C163.592 24.6132 163.562 26.8137 163.592 29.0083C163.606 29.7623 163.407 30.0469 162.615 30.0146C161.2 29.9589 159.78 29.9384 158.366 30.0146C157.404 30.0733 157.248 29.6919 157.257 28.8411C157.298 24.5927 157.237 20.3326 157.301 16.0931C157.319 15.031 156.981 14.7024 155.987 14.8403C155.556 14.8989 155.107 14.808 154.669 14.8579C153.924 14.9459 153.739 14.5997 153.789 13.9278C153.839 13.2559 153.789 12.5606 153.789 11.874C153.81 10.9528 153.534 9.82028 153.974 9.16894C154.414 8.51761 155.602 8.9665 156.459 8.96063C157.116 8.96063 157.289 8.70244 157.278 8.08045C157.245 6.61347 157.304 5.1465 157.254 3.67952C157.228 2.93137 157.427 2.64091 158.225 2.67318C159.692 2.73479 161.159 2.73186 162.626 2.67318C163.421 2.64384 163.621 2.93137 163.592 3.68539C163.533 5.09956 163.609 6.51958 163.559 7.93375C163.533 8.68191 163.735 9.05452 164.53 8.92836C164.579 8.92104 164.629 8.92104 164.677 8.92836C165.924 9.01931 167.981 8.43252 168.254 9.17188C168.84 10.7181 168.5 12.6075 168.503 14.3591C168.503 14.9459 167.995 14.8256 167.623 14.8285C166.599 14.8285 165.569 14.8784 164.548 14.8285C163.776 14.7816 163.539 15.0339 163.556 15.8114C163.639 18.0177 163.595 20.2153 163.592 22.4128Z" fill="#6E80A3"/>
<path d="M4.29315 22.3155C4.29315 20.2617 4.24328 18.208 4.31662 16.1542C4.35183 15.1655 4.12592 14.7899 3.05503 14.8017C0.804688 14.8545 0.804688 14.7899 0.804688 12.5014V11.6213C0.804688 9.05992 0.804688 9.02471 3.31908 8.95723C4.09071 8.93669 4.34303 8.71958 4.31076 7.94795C4.25501 6.58367 4.3489 5.21351 4.27555 3.84043C4.22861 2.96024 4.50146 2.55829 5.41099 2.66685C5.79827 2.70792 6.19142 2.66685 6.58457 2.70792C7.87844 2.81354 9.64761 2.12113 10.34 3.00132C10.9884 3.82869 10.5542 5.51571 10.5659 6.81545C10.5835 8.91909 10.5659 8.91909 12.6344 8.91909C15.5126 8.91909 15.5126 8.91909 15.5096 11.8149C15.5096 14.8046 15.5096 14.8897 12.4525 14.7958C10.9385 14.7459 10.4809 15.1508 10.5278 16.7087C10.6481 20.7077 10.5278 24.7125 10.5923 28.7144C10.5923 29.7325 10.3312 30.0875 9.2926 30.0171C7.97651 29.9403 6.6572 29.9354 5.34057 30.0024C4.48386 30.0377 4.26381 29.7091 4.28142 28.8934C4.32543 26.7164 4.29609 24.5248 4.29315 22.3155Z" fill="#6E80A3"/>
<path d="M122.51 10.8499C124.118 9.38295 125.509 8.32087 127.451 8.57319C129.144 8.79323 129.446 9.20105 129.185 10.8353C129.108 11.3194 129.044 11.8035 128.968 12.2846C128.844 13.0563 128.944 13.9893 128.536 14.5526C128.082 15.1746 127.248 14.4 126.541 14.4352C125.036 14.5086 124.083 15.2861 123.481 16.5741C122.783 18.0674 122.639 19.6782 122.624 21.2977C122.604 23.7417 122.539 26.1886 122.651 28.6326C122.704 29.856 122.275 30.0996 121.184 30.0292C119.913 29.9586 118.64 29.9586 117.37 30.0292C116.654 30.0585 116.334 29.9206 116.34 29.0873C116.375 22.6855 116.375 16.2826 116.34 9.87879C116.34 9.04555 116.633 8.90765 117.358 8.94579C118.335 9.01195 119.315 9.01195 120.292 8.94579C121.542 8.81963 122.645 8.83724 122.51 10.8499Z" fill="#6E80A3"/>
<path d="M107.833 10.9642C109.37 9.62923 110.491 8.69037 112.046 8.54954C114.135 8.3559 114.889 9.08352 114.631 11.0815C114.578 11.4688 114.517 11.8532 114.455 12.2375C114.335 13.0091 114.431 13.9333 114.029 14.5113C113.525 15.2389 112.683 14.3705 111.943 14.435C111.308 14.4692 110.696 14.6824 110.176 15.05C109.657 15.4175 109.253 15.9245 109.01 16.5123C108.409 17.8525 108.116 19.3101 108.153 20.7782C108.138 23.4188 108.077 26.0593 108.167 28.6794C108.209 29.8207 107.839 30.0965 106.768 30.0202C105.453 29.9498 104.134 29.9498 102.819 30.0202C102.085 30.0466 101.798 29.8588 101.801 29.049C101.836 22.6589 101.836 16.2697 101.801 9.88155C101.801 9.05124 102.112 8.90455 102.825 8.93976C103.846 8.9867 104.879 8.9603 105.897 8.93976C107.014 8.93096 108.32 8.63756 107.833 10.9642Z" fill="#6E80A3"/>
<path d="M23.0343 10.7967C23.8353 10.1806 24.3546 9.75225 24.9003 9.37083C25.5428 8.91971 26.2845 8.62989 27.0626 8.52586C29.1838 8.23246 30.0611 9.13025 29.7325 11.1664C29.6621 11.6006 29.5975 12.0466 29.53 12.4691C29.4156 13.1879 29.5095 14.0593 29.1281 14.5874C28.6821 15.2065 27.9222 14.4319 27.2562 14.4495C25.7423 14.4935 24.5951 15.2622 23.9497 16.8759C23.3629 18.3047 23.2514 19.8098 23.2455 21.3296C23.2455 23.8645 23.2133 26.4024 23.2661 28.9403C23.2837 29.7794 23.0314 30.0493 22.1922 30.017C20.7781 29.9613 19.361 29.9789 17.9468 30.0346C17.2016 30.064 16.9229 29.8557 16.9258 29.0606C16.9551 22.6704 16.9551 16.2793 16.9258 9.88721C16.9258 9.0745 17.2397 8.89553 17.9615 8.93074C18.9356 8.97768 19.9126 8.93074 20.8954 8.93074C22.0367 8.94541 23.4304 8.5728 23.0343 10.7967Z" fill="#6E80A3"/>
<path d="M175.501 29.9762H171.312C171.199 29.9016 171.066 29.8632 170.93 29.8664C170.795 29.8695 170.664 29.914 170.555 29.9939C169.801 30.0672 169.83 29.5626 169.833 29.0432C169.833 22.6942 169.833 16.3451 169.833 9.99606C169.833 9.23323 170.032 8.96037 170.822 8.99265C172.289 9.04839 173.756 9.01612 175.223 8.99265C175.751 8.99265 176.247 8.97504 176.103 9.73787C176.076 9.75547 176.024 9.77895 176.026 9.78775C176.049 9.84769 176.074 9.90644 176.103 9.96378V12.088C176.038 12.1548 176.002 12.2442 176.002 12.3373C176.002 12.4305 176.038 12.5199 176.103 12.5867C176.103 18.1691 176.103 23.7543 176.103 29.3425L176.053 29.3806H176.114C176.114 29.7591 175.956 29.9674 175.563 29.9674V29.9088L175.501 29.9762Z" fill="#6E80A3"/>
<path d="M175.961 3.53842C175.945 4.13447 175.753 4.71256 175.41 5.19991C175.066 5.68726 174.586 6.0621 174.03 6.27724C173.474 6.49239 172.867 6.53822 172.285 6.40897C171.703 6.27972 171.172 5.98117 170.759 5.55089C170.346 5.12062 170.07 4.57785 169.965 3.99091C169.86 3.40397 169.931 2.79909 170.169 2.25241C170.407 1.70573 170.802 1.24169 171.303 0.918692C171.804 0.595696 172.39 0.428183 172.986 0.437238C173.387 0.438111 173.784 0.519877 174.153 0.677641C174.522 0.835404 174.855 1.06593 175.133 1.35543C175.41 1.64493 175.627 1.98746 175.769 2.36254C175.911 2.73763 175.977 3.13756 175.961 3.53842Z" fill="#6E80A3"/>
<path d="M170.555 29.9908C170.664 29.911 170.795 29.8665 170.93 29.8633C171.066 29.8602 171.199 29.8985 171.312 29.9732L170.555 29.9908Z" fill="#6E80A3"/>
<path d="M176.082 12.5958C176.017 12.529 175.98 12.4396 175.98 12.3464C175.98 12.2533 176.017 12.1638 176.082 12.097C176.147 12.1638 176.183 12.2533 176.183 12.3464C176.183 12.4396 176.147 12.529 176.082 12.5958Z" fill="#6E80A3"/>
<path d="M176.08 9.97237C176.052 9.91503 176.026 9.85628 176.004 9.79634C176.004 9.79634 176.054 9.76406 176.08 9.74646C176.109 9.79899 176.132 9.85398 176.151 9.91076C176.156 9.92543 176.107 9.95183 176.08 9.97237Z" fill="#6E80A3"/>
<path d="M176.097 29.4013L176.035 29.3896L176.085 29.3514L176.15 29.3602L176.097 29.4013Z" fill="#6E80A3"/>
<path d="M175.504 29.976L175.536 29.9291L175.548 29.9878L175.51 30.0347L175.504 29.976Z" fill="#6E80A3"/>
</svg>
