<svg width="115" height="47" viewBox="0 0 115 47" fill="none" xmlns="http://www.w3.org/2000/svg">
<path d="M40.9242 31.6286H21.7251H20.9069H19.7272H19.2324C19.1373 31.6286 19.0422 31.6477 18.966 31.6669C17.8053 31.8777 17.0442 33.0083 17.2535 34.1773C17.4438 35.1929 18.3191 35.9403 19.3466 35.9403C19.3847 35.9403 19.4227 35.9403 19.4608 35.9403H20.4692C22.1247 35.9403 23.6279 37.5883 24.3509 39.1022L25.7971 42.13C27.3954 45.9818 31.7909 47.8215 35.6155 46.2118C37.4802 45.4261 38.9453 43.9314 39.7065 42.0534C39.7255 42.015 39.7445 41.9767 39.7635 41.9384C40.1822 41.191 42.9602 34.5222 42.9602 34.5222C43.1695 33.909 43.0934 33.2383 42.7509 32.6825C42.3704 32.0693 41.7234 31.6861 41.0004 31.6669L40.9242 31.6286ZM2.65913 16.2213C1.42232 16.2213 0.432868 17.2178 0.432868 18.4634C0.432868 19.709 1.42232 20.7055 2.65913 20.7055H5.43721C6.65499 20.6672 7.62541 19.6324 7.58736 18.4059C7.5493 17.2178 6.59791 16.2597 5.43721 16.2405L2.65913 16.2213ZM46.918 16.2213H35.0066C34.9305 16.2213 34.8543 16.2597 34.8353 16.3363L32.8374 20.9163C32.7993 21.0121 32.6852 21.0696 32.59 21.0313C32.5329 21.0121 32.4949 20.9738 32.4759 20.9163L32.0382 20.1115C31.9621 19.9773 31.905 19.8623 31.8289 19.7282C31.4293 19.0383 30.9156 18.4443 30.3067 17.9269C29.0889 16.892 27.5476 16.298 25.9493 16.2405C25.8541 16.2405 25.759 16.2405 25.6639 16.2405H12.0589C10.8792 16.2597 9.94682 17.237 9.96585 18.4251C9.98487 19.4407 10.727 20.3223 11.7164 20.4947C11.8306 20.5331 11.9447 20.5522 12.0589 20.5522H14.0568C15.8264 20.5522 16.9871 22.1428 17.7483 23.7525L17.9005 24.0591L18.909 26.1479C18.966 26.3012 19.0802 26.512 19.1944 26.7228C19.3085 26.9336 19.4227 27.1444 19.5369 27.336C19.613 27.4701 19.7081 27.6043 19.8033 27.7193C20.8688 29.099 22.7907 29.3865 24.6364 29.3865H45.1484C46.4614 26.397 47.8694 23.0626 49.2775 19.8048C49.5058 19.2683 49.6961 18.8084 49.6961 18.4059C49.7342 17.2178 48.8018 16.2405 47.6221 16.2022C47.603 16.2022 47.584 16.2022 47.565 16.2022L46.918 16.2213ZM2.50691 0.794922C1.32718 0.814085 0.375784 1.77225 0.394812 2.96037C0.41384 4.01435 1.17496 4.91502 2.22149 5.06832C2.24052 5.08749 2.33566 5.10665 2.50691 5.12581H7.09263C8.86223 5.12581 10.4415 6.73553 11.2027 8.34524L11.3359 8.63269C11.5832 9.22675 11.8877 9.93578 12.1921 10.664L12.2302 10.7406C13.3909 13.4618 15.1985 13.9984 18.1478 13.9984H29.5646L25.9112 5.64322L25.6829 5.10665C25.055 3.65024 23.9514 2.46212 22.5623 1.71476L22.4672 1.65727L22.372 1.59978C21.8583 1.33149 21.3065 1.13986 20.7356 0.986554C20.3361 0.890738 19.9365 0.814085 19.5179 0.794922H2.50691ZM38.2984 0.794922C39.4781 0.833248 40.3915 1.81057 40.3724 2.99869C40.3724 3.28614 40.2963 3.57359 40.1822 3.84188C40.1822 3.86104 40.1631 3.89937 40.1441 3.93769C40.1251 3.97602 39.5542 5.29828 39.5352 5.31745L35.8438 13.9792H51.7701C53.4256 10.1466 54.9478 6.58222 56.1846 3.70773C56.7745 2.32798 55.6518 0.794922 54.1867 0.794922H38.2984Z" fill="#6E80A3"/>
<path d="M58.8695 32.9702C58.8695 33.6793 58.3748 34.1392 57.6518 34.1392H56.6813V35.5764H56.3008V31.8396H57.6518C58.3939 31.8396 58.8695 32.2995 58.8695 32.9702ZM58.47 33.0086C58.489 32.5678 58.1465 32.1845 57.6898 32.1654C57.6518 32.1654 57.6327 32.1654 57.5947 32.1654H56.6623V33.8517H57.5947C58.0323 33.8901 58.4319 33.5643 58.47 33.1044C58.47 33.066 58.47 33.0277 58.47 33.0086Z" fill="#6E80A3"/>
<path d="M59.2266 34.2541C59.2266 33.411 59.7784 32.8552 60.5966 32.8552C61.4148 32.8552 61.9476 33.411 61.9476 34.2541C61.9476 35.0973 61.3957 35.6531 60.5966 35.6531C59.7974 35.6531 59.2266 35.0782 59.2266 34.2541ZM61.567 34.2541C61.567 33.6026 61.1864 33.181 60.5966 33.181C60.0067 33.181 59.6071 33.6026 59.6071 34.2541C59.6071 34.9057 60.0067 35.3273 60.5966 35.3273C61.1864 35.3273 61.567 34.9057 61.567 34.2541Z" fill="#6E80A3"/>
<path d="M66.6864 32.9124L65.6399 35.5952H65.2783L64.4411 33.3339L63.6229 35.5952H63.2423L62.2148 32.9124H62.6144L63.4517 35.1736L64.2889 32.9124H64.6124L65.4306 35.1736L66.2678 32.9124H66.6864Z" fill="#6E80A3"/>
<path d="M69.4648 34.388H67.3337C67.3717 34.9629 67.6952 35.3462 68.228 35.3462C68.5705 35.3462 68.894 35.1737 69.0843 34.8863L69.3697 35.0396C69.1223 35.4229 68.6847 35.6528 68.228 35.6336C67.4669 35.6336 66.9531 35.0779 66.9531 34.2347C66.9531 33.3915 67.4669 32.8358 68.228 32.8358C68.9891 32.8358 69.4838 33.3724 69.4838 34.1964C69.4648 34.2731 69.4648 34.3305 69.4648 34.388ZM67.3337 34.1198H69.0843C69.0462 33.5257 68.7227 33.1424 68.209 33.1424C67.6952 33.1424 67.3717 33.5257 67.3337 34.1198Z" fill="#6E80A3"/>
<path d="M71.5208 32.8552L71.4828 33.2002C70.8358 33.2002 70.4553 33.5259 70.4553 34.0433V35.5956H70.0938V32.9127H70.4553V33.3726C70.6456 33.0277 71.0071 32.8552 71.5208 32.8552Z" fill="#6E80A3"/>
<path d="M74.1289 34.388H71.9977C72.0358 34.9629 72.3593 35.3462 72.8921 35.3462C73.2346 35.3462 73.558 35.1737 73.7483 34.8863L74.0337 35.0396C73.7864 35.4229 73.3487 35.6528 72.8921 35.6336C72.1309 35.6336 71.6172 35.0779 71.6172 34.2347C71.6172 33.3915 72.1119 32.8358 72.8921 32.8358C73.6722 32.8358 74.1479 33.3724 74.1479 34.1964C74.1289 34.2539 74.1289 34.3497 74.1289 34.388ZM71.9977 34.1198H73.7483C73.7103 33.5257 73.3868 33.1424 72.873 33.1424C72.3593 33.1424 72.0358 33.5257 71.9977 34.1198Z" fill="#6E80A3"/>
<path d="M77.3074 31.6288V35.5956H76.9459V35.0207C76.7556 35.4231 76.337 35.6722 75.8803 35.6531C75.1383 35.6531 74.6055 35.0973 74.6055 34.2733C74.6055 33.4493 75.1383 32.8744 75.8803 32.8744C76.337 32.8552 76.7556 33.1044 76.9459 33.5068V31.6479L77.3074 31.6288ZM76.9459 34.2541C76.9459 33.6026 76.5463 33.181 75.9565 33.181C75.3666 33.181 74.967 33.6026 74.967 34.2541C74.967 34.9057 75.3666 35.3273 75.9565 35.3273C76.5463 35.3273 76.9459 34.9057 76.9459 34.2541Z" fill="#6E80A3"/>
<path d="M82.1785 34.2539C82.1785 35.0971 81.6457 35.6337 80.9037 35.6337C80.447 35.672 80.0284 35.4037 79.8381 35.0013V35.5762H79.4766V31.6094H79.8381V33.4682C80.0284 33.0658 80.447 32.8167 80.9037 32.8358C81.6457 32.855 82.1785 33.4107 82.1785 34.2539ZM81.798 34.2539C81.798 33.6024 81.3984 33.1808 80.8085 33.1808C80.2187 33.1808 79.8191 33.6024 79.8191 34.2539C79.8191 34.9055 80.2187 35.327 80.8085 35.327C81.3984 35.327 81.798 34.9055 81.798 34.2539Z" fill="#6E80A3"/>
<path d="M82.6917 36.707L82.7297 36.4004C82.8058 36.4388 82.8819 36.4579 82.9581 36.4388C83.1864 36.4388 83.2815 36.2854 83.3767 36.0555L83.605 35.5572L82.4062 32.8936H82.8058L83.7953 35.1548L84.7467 32.8936H85.1463L83.7192 36.0938C83.5479 36.4771 83.3767 36.7454 82.9961 36.7454C82.901 36.7645 82.7868 36.7454 82.6917 36.707Z" fill="#6E80A3"/>
<path d="M55.75 38.0867H56.3208L57.6528 41.2103L58.9467 38.0867H59.5366L57.9002 41.881H57.3864L55.75 38.0867Z" fill="#6E80A3"/>
<path d="M60.5601 38.5274V39.8305H62.0633V40.2904H60.5601V41.881H60.0273V38.0867H62.2726V38.5274H60.5601Z" fill="#6E80A3"/>
<path d="M66.1722 39.9836C66.1722 41.1142 65.4302 41.8807 64.3265 41.8807H62.9375V38.0673H64.3265C65.4302 38.0864 66.1722 38.853 66.1722 39.9836ZM65.6014 40.0027C65.6014 39.1212 65.0686 38.5463 64.2885 38.5463H63.4703V41.4592H64.2885C65.0876 41.44 65.6014 40.8651 65.6014 40.0027Z" fill="#6E80A3"/>
<path d="M71.9037 41.881L71.7325 39.0065L70.4386 41.881H70.1151L68.8212 39.0065L68.65 41.881H68.1172L68.3455 38.0483H68.9354L70.2864 40.9995L71.6183 38.0483H72.2082L72.4365 41.881H71.9037Z" fill="#6E80A3"/>
<path d="M73.1367 38.24C73.1367 38.0675 73.2889 37.9142 73.4602 37.9142C73.6314 37.9142 73.7837 38.0675 73.7837 38.24C73.7837 38.4124 73.6314 38.5657 73.4602 38.5657C73.2889 38.5657 73.1367 38.4316 73.1367 38.2591V38.24ZM73.2128 39.1406H73.7266V41.9001H73.2128V39.1406Z" fill="#6E80A3"/>
<path d="M74.3398 40.5201C74.3398 39.6578 74.9107 39.0829 75.7669 39.0829C76.0904 39.0829 76.4139 39.1787 76.6803 39.3895L76.3758 39.7344C76.2046 39.5811 75.9953 39.5045 75.7669 39.5236C75.2342 39.5236 74.8726 39.9069 74.8726 40.501C74.8726 41.095 75.2342 41.4783 75.7669 41.4783C76.0143 41.4783 76.2807 41.3825 76.4519 41.21L76.7564 41.5741C76.471 41.8232 76.1094 41.9574 75.7479 41.9382C75.0058 41.9765 74.3779 41.4208 74.3398 40.6926C74.3398 40.6159 74.3398 40.5776 74.3398 40.5201Z" fill="#6E80A3"/>
<path d="M78.8259 39.0829L78.7879 39.562C78.179 39.562 77.7984 39.8686 77.7984 40.3477V41.8807H77.2656V39.1404H77.7604V39.5428C77.9697 39.2554 78.3502 39.0829 78.8259 39.0829Z" fill="#6E80A3"/>
<path d="M78.9414 40.5201C78.9414 39.7344 79.5693 39.0829 80.3495 39.0829C81.1296 39.0829 81.7766 39.7153 81.7766 40.501C81.7766 41.2867 81.1486 41.9382 80.3685 41.9382C79.5122 41.9382 78.9414 41.3633 78.9414 40.5201ZM81.2438 40.5201C81.2438 39.9452 80.8823 39.5428 80.3685 39.5428C79.8547 39.5428 79.4742 39.9261 79.4742 40.5201C79.4742 41.1142 79.8357 41.4783 80.3685 41.4783C80.9013 41.4783 81.2438 41.095 81.2438 40.5201Z" fill="#6E80A3"/>
<path d="M83.3754 37.8185C83.5657 37.8185 83.775 37.8568 83.9463 37.9335L83.9082 38.3359C83.794 38.2784 83.6608 38.2592 83.5276 38.2592C83.2993 38.2401 83.09 38.4125 83.0519 38.6425C83.0519 38.6617 83.0519 38.6808 83.0519 38.7V39.1216H83.8702V39.5432H83.0519V41.8619H82.5192V39.5432H82.0625V39.1216H82.5192V38.6233C82.5001 38.2017 82.8236 37.8185 83.2613 37.7993C83.3183 37.7993 83.3374 37.7993 83.3754 37.8185ZM84.2888 38.2209C84.2888 38.0484 84.441 37.8951 84.6122 37.8951C84.7835 37.8951 84.9357 38.0484 84.9357 38.2209C84.9357 38.3934 84.7835 38.5467 84.6122 38.5467C84.441 38.5467 84.2888 38.4125 84.2888 38.2401C84.2888 38.2401 84.2888 38.2401 84.2888 38.2209ZM84.3458 39.1216H84.8596V41.8811H84.3458V39.1216Z" fill="#6E80A3"/>
<path d="M88.2094 40.156V41.8807H87.6956V40.2518C87.6956 39.8302 87.3531 39.4853 86.9345 39.4853C86.5159 39.4853 86.1734 39.8302 86.1734 40.2518V41.8807H85.6406V39.1404H86.1354L86.1544 39.5428C86.3637 39.2362 86.7252 39.0637 87.0867 39.0829C87.7527 39.0829 88.2094 39.5045 88.2094 40.156Z" fill="#6E80A3"/>
<path d="M91.1011 40.1561V41.8808H90.5874L90.5684 41.4017C90.3781 41.7467 90.0166 41.9383 89.636 41.9383C89.0842 41.9383 88.7227 41.6125 88.7227 41.1143C88.7227 40.616 89.1793 40.2519 89.8643 40.2519C90.0927 40.2519 90.34 40.2711 90.5684 40.3286V40.2136C90.5684 39.7729 90.2829 39.5046 89.8263 39.5046C89.5599 39.4854 89.3125 39.5812 89.1222 39.7729L88.8939 39.4663C89.1793 39.2171 89.5599 39.083 89.9595 39.1021C90.6445 39.083 91.1011 39.5046 91.1011 40.1561ZM90.5874 40.6927C90.3781 40.6544 90.1688 40.616 89.9404 40.616C89.5409 40.616 89.2745 40.8077 89.2745 41.0951C89.2745 41.3826 89.4647 41.555 89.7882 41.555C90.2449 41.5359 90.6064 41.1526 90.5874 40.6927Z" fill="#6E80A3"/>
<path d="M94.3935 40.156V41.8807H93.8797V40.2518C93.8988 39.8686 93.5943 39.5428 93.2138 39.5428C93.1757 39.5428 93.1567 39.5428 93.1186 39.5428C92.6619 39.5428 92.3575 39.8302 92.3575 40.2518V41.8807H91.8438V39.1404H92.3385V39.5428C92.5478 39.2362 92.9093 39.0637 93.2899 39.0829C93.9558 39.0829 94.3935 39.5045 94.3935 40.156Z" fill="#6E80A3"/>
<path d="M94.9609 40.5201C94.9609 39.6578 95.5318 39.0829 96.388 39.0829C96.7115 39.0829 97.035 39.1787 97.3014 39.3895L96.9969 39.7344C96.8257 39.5811 96.6164 39.5045 96.388 39.5236C95.8552 39.5236 95.4937 39.9069 95.4937 40.501C95.4937 41.095 95.8552 41.4783 96.388 41.4783C96.6354 41.4975 96.9018 41.3825 97.073 41.21L97.3775 41.5741C97.0921 41.8232 96.7305 41.9574 96.369 41.9382C95.6269 41.9957 94.999 41.4208 94.9609 40.6926C94.9609 40.6351 94.9609 40.5776 94.9609 40.5201Z" fill="#6E80A3"/>
<path d="M100.289 40.7118H98.2154C98.2724 41.21 98.5198 41.5358 98.9955 41.5358C99.3 41.5358 99.6044 41.3825 99.7757 41.1334L100.175 41.3441C99.9089 41.7274 99.4712 41.9574 98.9955 41.9382C98.1963 41.9382 97.6445 41.3633 97.6445 40.5201C97.6445 39.6769 98.1773 39.0829 98.9765 39.0829C99.7757 39.0829 100.289 39.6386 100.289 40.4818C100.308 40.5585 100.308 40.6351 100.289 40.7118ZM98.2154 40.3477H99.7757C99.7376 39.8303 99.4522 39.5045 98.9955 39.5045C98.5388 39.5045 98.2724 39.8303 98.2154 40.3477Z" fill="#6E80A3"/>
<path d="M105.144 40.8076C105.144 41.4592 104.63 41.8807 103.869 41.8807H102.309V38.0673H103.812C104.497 38.0673 104.953 38.4505 104.953 39.0446C104.953 39.4087 104.725 39.7345 104.383 39.8686C104.82 39.9644 105.144 40.3477 105.144 40.8076ZM102.86 39.6961H103.698C104.116 39.6961 104.402 39.4662 104.402 39.1021C104.402 38.738 104.116 38.508 103.698 38.508H102.86V39.6961ZM104.573 40.7884C104.573 40.4052 104.268 40.1561 103.831 40.1561H102.841V41.44H103.812C104.288 41.44 104.573 41.1717 104.573 40.7884Z" fill="#6E80A3"/>
<path d="M107.921 40.1561V41.8808H107.408L107.389 41.4017C107.198 41.7467 106.837 41.9383 106.456 41.9383C105.905 41.9383 105.543 41.6125 105.543 41.1143C105.543 40.616 106 40.2519 106.685 40.2519C106.913 40.2519 107.16 40.2711 107.389 40.3286V40.2136C107.389 39.7729 107.103 39.5046 106.647 39.5046C106.38 39.4854 106.133 39.5812 105.943 39.7729L105.714 39.4663C106 39.2171 106.38 39.083 106.78 39.1021C107.465 39.083 107.921 39.5046 107.921 40.1561ZM107.389 40.6927C107.179 40.6544 106.97 40.616 106.742 40.616C106.342 40.616 106.076 40.8077 106.076 41.0951C106.076 41.3826 106.266 41.555 106.59 41.555C107.065 41.5359 107.408 41.1718 107.389 40.6927C107.389 40.7119 107.389 40.7119 107.389 40.6927Z" fill="#6E80A3"/>
<path d="M111.213 40.156V41.8807H110.68V40.2518C110.699 39.8686 110.395 39.5428 110.014 39.5428C109.976 39.5428 109.957 39.5428 109.919 39.5428C109.462 39.5428 109.158 39.8302 109.158 40.2518V41.8807H108.625V39.1404H109.12V39.5428C109.329 39.2362 109.691 39.0637 110.071 39.0829C110.756 39.0829 111.213 39.5045 111.213 40.156Z" fill="#6E80A3"/>
<path d="M112.889 40.6545H112.49V41.881H111.957V37.8759H112.49V40.2329H112.889L113.86 39.1406H114.526L113.308 40.4437L114.583 41.881H113.917L112.889 40.6545Z" fill="#6E80A3"/>
</svg>
